<?xml version="1.0" encoding="UTF-8"?><svg id="Layer_2" xmlns="http://www.w3.org/2000/svg" viewBox="0 0 348.09 36.35"><defs><style>.cls-1{fill:#030303;}</style></defs><g id="Layer_1-2"><path class="cls-1" d="m99.11,17.43c5.39.57,9.39-1.43,14.39-3.43,0,7-9,3-12.94,4.36-.56.36-1.1,0-1.45-.93Z"/><path class="cls-1" d="m70.48,14.38c-5.98,1.62-10.98-.38-16.98,1.62,9,0,17-5,26-1-3-1-5-1-7.78-.99-.54.1-.85.25-1.24.37Z"/><path class="cls-1" d="m225.45,19.13c.5.58,1.12.18,1.74.15,0,.94.14,1.83-.04,2.65-.14.64-.18,1.26-.21,1.91-.36.54-.83.92-1.49,1.09-.28.07-.69.32-.71.53-.06.48-.57.26-.67.56-.12-.12-.24-.24-.4-.4.21-.19.4-.49.64-.55.69-.18.93-.73,1.12-1.27.25-.71.47-1.47.17-2.22-.29-.71-.16-1.59-.86-2.14-.04-.04-.05-.16-.03-.23.17-.78-.19-1.51-.28-2.26-.08-.73-.37-1.47-.42-2.17-.06-.93-.66-1.71-.59-2.64-.5-.41.06-1.15-.47-1.55.04-.54-.16-.97-.48-1.43-.4-.58-.33-.88-.03-1.65.19-.47.68-.48,1.03-.7.09-.06.24,0,.35,0,.43.67-.38,1.37-.08,1.83.36.54-.18,1.31.57,1.62.5-1.06.36-2.23.38-3.47.36.2.64.36.88.5.05.12.09.19.11.27.1.43-.19.9.17,1.3.03.03-.07.17-.1.26-.68,1.7-.61,3.48-.54,5.24.03.72.32,1.43.5,2.17h.92c.02.15.06.27.05.38-.08.59-.46.99-.87,1.38-.29.27-.28.28-.37.83Z"/><path class="cls-1" d="m271.92,2.94c.65.13.97.78,1.74.74.58-.04,1.18.39,1.79.43.61.04,1.23-.13,2.02-.23-.21.33-.3.64-.45.67-.7.17-.71.66-.68,1.21,0,.08,0,.17,0,.25.06.85.06.84-.62.87-.45.02-.95-.06-1.32.11-.64.29-1.19.75-1.81,1.16.34.53.69.82,1.3.73.86-.13,1.62.23,2.42.56v.85c-.55.11-.96.65-1.6.59-.66.59-1.23.13-1.69-.25-.58-.48-1.05-1.11-1.64-1.76-.52.03-1.1-.06-1.67-.47-.72-.52-.82-.68-.24-1.53.29.29.54.6.85.83.21.15.53.14.75.29.36.24.36-.17.53-.25.42-.19.83-.42,1.29-.66-.52-.66-1.26-.69-1.88-.94-.46-.18-.91-.75-.91-1.33,0-.44.12-.83.64-.96.22-.06.42-.2.6-.35.22-.18.41-.41.57-.56Z"/><path class="cls-1" d="m301.69,6.13c.19-.2.49-.37.57-.62.09-.3.22-.57.49-.6.24-.03.51.14.76.22.07.02.15.04.24.07.17.52-.1.95-.43,1.25-.66.61-1.17,1.29-1.33,2.22-.15-.13-.3-.29-.32-.27-.65.49-1.5.36-2.19.73-.97.52-1.93.15-2.87-.09-.43-.11-.82-.43-1.2-.64-.24-.65-.05-1.18.22-1.73.24-.48.48-.99.42-1.56-.06-.56.19-1,.55-1.4.62.27,1.23.53,1.92.83v.94c.25.25.45.46.65.66h2.51Z"/><path class="cls-1" d="m192.56,18.84c1.94-.84,2.94,2.16,4.94,2.16-2,1-3-1-4-2,4,6,11,6,17,8-7,0-13-4-19-5h3s-1-1-.95-.98c-.71-.69-.99-1.36-.98-2.18Z"/><path class="cls-1" d="m82.58,19.74c1.61,1.1,3.42.18,3.77.85-.14,1.19-2.91-1.03-3.41-.49.88.1,1.25.75,2.1.88-.85-.13-1.71-.24-2.6-.34l.88.1c-1.68-1.35-3.54-1.46-5.47-1.51.54-.57,2.87.1,3.97.17.27.11.5.23.76.36Z"/><path class="cls-1" d="m83.27,10.4c-3.25-1.1-4.44.22-7.45.27-2.01.04.44.61,1.44.6-2.01.04-3.45-.56-4.9-1.15,3.1-.13,5.1-.16,8.14-.26.88.1,1.75.22,2.77.55Z"/><path class="cls-1" d="m49.06,18.98q1.66-.24,2.09.37c-3.64,1.53-7.75,2.47-11.83,3.37,2.03-1.98,8.62-1.23,9.99-3.47-.15-.06-.16-.16-.25-.27Z"/><path class="cls-1" d="m109.63,20.57c-2.4.72-2.44,6.83-5.29.77,2.24.64,2.78-.94,4.22-1.74.44-.06.62.14,1.07.97Z"/><path class="cls-1" d="m234.45,17.69c.32-1.23,1.51-1.62,2.15-2.38.43-1.65-.73-2.73-1.24-4.13.32-.02.62-.13.85-.05,1.49.5,2.97,1.03,4.45,1.56-.07.81-.72,1.06-1.24,1.42-.39.27-.82.48-1.16.8-.66.61-1.27,1.27-2.01,2.02.26.09.39.12.51.19.1.06.19.15.28.23.17-.16.35-.33.58-.55.27.22.53.45.8.67-.23.23-.44.43-.64.64-.87,0-1.74-.02-2.61,0-.38.01-.61-.15-.73-.42Z"/><path class="cls-1" d="m33.47,20.45c1.03-1.45,3.03-1.45,4.03-2.45l-1,1c4-1,9-2,13-3-5,1-9,3-14.08,4.11-.61-.02-1.27.24-1.96.34Z"/><path class="cls-1" d="m275.44,24.62c-.25,0-.41.02-.56,0-1.39-.17-2.75.31-4.13.25-.95.45-2.02.5-2.97.94-.48.22-.5.59-.7.95,1.01.3,1.9-.09,2.81-.14.9-.05,1.8-.01,2.75-.01-.33.6-.73.85-1.33.75-.12-.02-.26-.04-.37,0-.34.12-.78.48-.99.37-.42-.21-.8-.09-1.2-.12-.41-.04-.83-.03-1.24,0-.43.03-.9-.19-1.29.23-.04.04-.33-.14-.5-.23-.45-.25-.77-1.36-.66-1.82.15-.63.68-.7,1.11-.91.13-.06.38.06.49-.02.97-.74,2.1-.43,3.16-.49.25-.01.5-.02.75,0,1.04.1,1.91-.32,2.77-.84.16-.1.38-.18.55-.15.7.09,1.25.39,1.55,1.24Z"/><path class="cls-1" d="m279.82,12.71c.64-.53,1.29-1.05,1.94-1.59.66-.02.46.8.96.99.59.1,1.21-.02,1.87.21.48.17,1.13-.17,1.71-.29.23-.05.48-.06.66-.19.18-.12.24-.17.46-.02.48.32,1.01.54,1.53.8.14.07.3.1.42.18q.95.63.94,1.97c-.4.24-.57.85-1.13.83-.55-.03-.51-.74-.94-.96-.17-.09-.23-.38-.39-.51-.65-.51-.65-.5-1.53-.51-.37,0-.75-.05-1.12,0-.82.13-1.51-.22-2.09-.65-.53-.4-.98-.45-1.55-.21-.25.1-.52.15-.76.27-.41.21-.69.05-.98-.32Z"/><path class="cls-1" d="m78.78,15.9c.93-.82,3.08,1.11,4.51.61-1.42.5-3.29.4-5.89-.61q.84.08,1.38,0Z"/><path class="cls-1" d="m82.63,14.93c-.13-2.93-3.13.07-4.13-1.93,2,0,3,1,5.44,2.17-.4-.08-.82-.15-1.32-.24Z"/><path class="cls-1" d="m215.63,19.99c3.87,0-1.13-4.99,1.87-3.99,2,2,1,5,2,8-2,0-2-2-3.66-2.88-.29-.36-.19-.68-.21-1.13Z"/><path class="cls-1" d="m296.43,21.63c-.55.29-1.08.56-1.28,1.19-.04.14-.32.2-.48.29-.43.24-.87.48-1.39.78-.09-.26-.26-.52-.25-.77.03-.66-.27-1.14-.71-1.58-.28-.28-.7-.49-.55-1.03.21-.13.43-.32.67-.39.9-.25,1.13-.15,1.95.48.49.38.96.66,1.71.34.97-.42,2.81.15,3.4,1.51.05.11.16.18.24.28-.67,1.05-.65,1.02-1.8.46-.41-.2-.73-.43-.95-.84-.15-.28-.39-.51-.56-.73Z"/><path class="cls-1" d="m33.95,14.63c-2.45-2.63-3.17,5.14-5.45.37,1.01,0,3.06-.05,3.85-.55.51.04.99.11,1.59.18Zm-4.7.96c.29.38,1.32.36.92.71.23-.39-.24-.56-.92-.71Z"/><path class="cls-1" d="m83.43,7.33c.03,1.41-2.52-.08-3.14.61s.34.7,1.29.73c-1.91-.05-2.89-.05-5.23-.73,1.99-.02,5.23.73,6.88-.68.07.03.13.05.2.08Z"/><path class="cls-1" d="m290.51,5.95c.21-.9-.2-1.68.26-2.41.03-.05-.2-.27-.31-.4-.12.2-.22.35-.32.5-.49-.32-1.04.67-1.5-.07q.58-.67,1.94-.7c.37-.95,1.02-1.74,1.85-2.42.89.49,1.11,1.41,1.4,2.29.12.36.28.71.42,1.08-.2.67-1.06.48-1.51.99-.38.42-.94.68-1.45.98-.16.09-.38.09-.77.17Z"/><path class="cls-1" d="m276.56,17.64c-.26.36-.39.66-.74.88-.98.63-1.98.94-3.15.87-.42-.03-.84.15-1.27.23-1.27.25-2.54.49-3.8.76-.14.03-.24.22-.43.4-.67.1-1.46.21-2.25.32-.24-.31-.17-.6.13-.84.37-.3.75-.59,1.13-.88.39.63.77-.05,1.16-.04.79.01,1.57-.32,2.39-.22.1.01.23-.06.32-.12.83-.55,1.81-.66,2.72-.96-.26-.19-.52-.38-.97-.72.33-.13.53-.21.88-.35.13.07.51.26.91.48-.22.23-.38.4-.57.6,1.22.41,2.3-.51,3.53-.4Z"/><path class="cls-1" d="m260,13.83c.32.24.59.44.91.67-.15.44-.3.92-.48,1.46.2.45.74.49,1.06.27.45-.32.5.07.6.23.14.22-.13.81-.36.82-.31,0-.67.16-.92-.16-.18-.23-.35-.46-.38-.5-.75-.22-1.3.67-1.78-.23.15-.15.37-.32.52-.54.35-.48.68-.98.19-1.59-.12-.15-.19-.33-.26-.47.35-.34.67-.65,1-.97,0-.89,0-1.71,0-2.53,0-.55.26-.96.78-1.14.34-.12.68-.2,1.02.08.32.27.29.72.17.9-.38.55-.16,1.11-.21,1.66-.02.18.11.37.15.55.14.53.27.75-.66.72-.54-.02-.97.25-1.36.77Z"/><path class="cls-1" d="m107.16,18.63c-1.72.5-4.36-1.78-5.55-.48-.46-5.66,3.83.98,5.07-.41.35.14.49.46.49.89Z"/><path class="cls-1" d="m326.68,13.38c.11-1.39.21-2.67.33-3.94.04-.47.61-.77,1.13-.53.49.22.96.53,1.37.87.29.25.55.47,1.01.3-.04,1.16-.27,2.06-1.35,2.5-.42.17-.91.28-1.25.56-.34.28-.68.2-1.23.25Z"/><path class="cls-1" d="m65.23,18.21c-2.22.66-6.03,1.38-8.65,1.94,3.13-.03,4.18-2.13,7.88-1.91.22-.02.46-.02.77-.03Z"/><path class="cls-1" d="m212.85,16.29c1.65,2.71-.35,6.71-.35,9.71-2-3-1-6,0-9.36.07-.08.15-.15.36-.34Z"/><path class="cls-1" d="m44.21,22.79c-.58,1.9-4.89-.07-3.83,1.97q1.41-.34,2.82-.69c-2.43,1.34-3.55-.66-6.25-.08.47-2.5,4.08-.88,6.26-1.04.32-.08.61-.1,1-.16Z"/><path class="cls-1" d="m263.42,15.52c-.08-.19-.14-.33-.2-.47-.06-.14-.12-.28-.21-.51h-1.43c.41-.73.87-.54,1.31-.16.16-.26.32-.44.39-.65.24-.7.1-.91-.68-1.19-.11-.04-.26-.25-.23-.31.09-.2.14-.29.04-.57-.14-.35-.04-.81.14-1.27.17-.45.31-.71.74-.94.24-.14.32-.58.51-.99.37.52.8.95.8,1.6,0,1.33.02,2.66,0,3.98,0,.38-.11.78-.26,1.13-.14.31-.45.47-.9.35Z"/><path class="cls-1" d="m82.68,15.19c.74.09,2.15-.41,3.74,1.04-2.1-.87-2.74.93-4.8-1.25.2-.1.63-.01,1.07.21Z"/><path class="cls-1" d="m280.4,25.14c.82-.25,1.42.46,2.19.61.3.06.36.57.18.83-.37.53-1.26,1-1.93,1.03-.17,0-.33.02-.5,0-.62-.1-1.14.16-1.64.47-.09-.09-.18-.18-.2-.2.23-.23.48-.48.53-.53.16-1.41.28-2.49.41-3.73.22-.15.56-.42.93-.62.2-.11.49-.17.69-.1.61.22,1.2.51,1.86.8-.78.78-1.71.21-2.53.5,0,.28,0,.6-.09.95-.68.38-.9.96-.58,1.82.41-.17.78-.27,1.1-.47.4-.24.4-.69.03-1-.16-.13-.36-.21-.46-.37Z"/><path class="cls-1" d="m50.38,17.92c-1.39.47-5.02,1.99-6.04-.1,1.64.45,3.9-.75,6.22-.06-.05.05-.1.1-.17.17Z"/><path class="cls-1" d="m116.17,26.95c-2.31.5-4.61.86-6.95-.71,1.44-.51,3.85,1.02,5.81.71.38.08.75,0,1.14,0Z"/><path class="cls-1" d="m67.63,9.19c-1.47.04-1.85-.64-2.97-.53,2.22-.21,3.32-.31,5.48-.47.38.67-.7.75-1.35,1.02-.34-.01-.69-.02-1.16-.03Z"/><path class="cls-1" d="m220.47,21.53c.08-.2.13-.45.27-.62.37-.49.26-.92.04-1.45-.46-1.1-1.19-1.97-2.22-2.92.69.18,1.22.11,1.53.73.31.62.75,1.19,1.13,1.78.38.58.56,1.21.51,1.91-.04.5-.05,1,.01,1.49.03.23.26.43.52.84.28-.77.51-1.32.49-1.99.51-.05.7.21.71.63.02.68.03,1.36-.23,2.02-.23.57-.36,1.18-.55,1.8-.17.26-1.17.26-.7-.19.05-.66-.08-1.23-.48-1.8-.42-.61-.63-1.35-.5-2.18-.21-.02-.36-.03-.52-.05Z"/><path class="cls-1" d="m67.21,11.44c-.98-.14-1.7.62-2.52-.66,1.13-.13,2.67.4,4.19.92-.83-1.27-2.51,1.59-3.41-.05.91.06,1.3-.06,1.73-.22Z"/><path class="cls-1" d="m256.13,19.97c.29.27.58.54.88.82h1.74c.12.36.28.72.35,1.09.15.84-.2,1.58-.68,2.19-.45.57-.37,1.07-.03,1.78-.54-.21-.98-.5-1.43-.54-.46-.04-.28-.42-.49-.58-.3-.23.06-.4.15-.6.19-.46.38-.93.5-1.41.2-.87-.17-1.58-.94-1.91-.54-.23-.21-.49-.26-.73.07-.04.15-.08.22-.12Z"/><path class="cls-1" d="m253.2,30.32c.34.21.56.3.72.46.18.18.47.53.41.61-.55.83,12.94-20.65,13.85-20.24-.58.29-1.12.56-1.65.84-.21.11-13.98,18.83-13.89,18.66.31-.61.27-1.25.22-1.89-.05-.69.44-1.15.62-1.73,1.49.2,1.95.59,2.14,1.86-.74.45-1.64.66-2.42,1.42Z"/><path class="cls-1" d="m43.64,19.16c-2.6.86-4.64,2.84-8.78,2.76,2.55-.42,6.82-.47,7.9-2.64.29-.06.56-.07.88-.12Z"/><path class="cls-1" d="m4.14,22.88c2.36.12,5.36-.88,7.36-.88-2,2-5,2-7,2,0,0,0-1-.39-.76,0-.12.02-.23.03-.36Z"/><path class="cls-1" d="m229.75,19.8c-.19-.4-.39-.78-.55-1.19-.18-.46-.43-.94-.45-1.42-.05-.89-.62-1.23-1.32-1.55.05-.46.49-.62.73-.93.23-.31.42-.75.73-.88.42-.17.29-.76.8-.78.35.06.53.29.51.68,0,.12-.05.3,0,.36.51.56.12,1.03-.17,1.47-.44.66-.54,1.47-.29,2.07.32.75.05,1.42,0,2.16Z"/><path class="cls-1" d="m78.29,15.15c-.66,1.12-3.56-.03-4.61.02,2.07-.09,4.08-.12,5.77.2-.35-.06-.69-.13-1.16-.21Z"/><path class="cls-1" d="m278.33,17.3c-.07-.42-.07-.76.26-1.12.31-.34.65-.28,1.01-.29.52-.01,1.02.01,1.53-.22.23-.11.45-.1.43-.42.38.03.68-.74,1.12-.11.47-.32,1-.28,1.51-.23.21.02.54.21.56.36.04.29.19.69-.15.91-.29.19-.6.37-.93.44-.36.08-.83.15-1.1-.01-.46-.28-.81-.11-1.18.04-.51.21-1.05.06-1.56.23-.47.16-.96.27-1.5.42Z"/><path class="cls-1" d="m43.08,15.08c-3.71-.67-6.75,2.34-10.4.78,3.49.67,6.69-1.45,10.24-.84.05.02.1.04.16.05Z"/><path class="cls-1" d="m49.31,12.25c1.02.61,3.48.22,5.93-.16-2.44.38-6.14.97-8.6,1.35,1.23-.19.95-.96,2.46-.91.18-.08.14-.18.22-.28Z"/><path class="cls-1" d="m267.63,2.63c.31.23.5.3.54.42.24.69.55,1.38.64,2.09.1.78.24,1.64-.5,2.31.78-.52,1.8-.49,2.36-1.33.18-.27.24-.24.84-.26.07,1.03-.03,1.17-.92,1.45-.73.24-1.45.51-2.18.74-.22.07-.48.01-.77.01V2.63Z"/><path class="cls-1" d="m36.86,17.76c.33-2.23,3.12-.83,5.36-2-1.23.18-2.46.35-3.78,1.07-.38.29-1,.6-1.58.94Z"/><path class="cls-1" d="m42.14,13.09c2.36,2.91,2.36-5.09,5.36-1.09-1,0-3,1-4.07.89-.39.05-.78.12-1.28.2Z"/><path class="cls-1" d="m75.13,8.53c.37.47,1.37.47.9.13-.27-.03-.54-.08-.9-.13Z"/><path class="cls-1" d="m78.19,17.93c-1.23.12-2.25.14-3.74-.4,2.06-.06,3.5.52,5.76.83-.83-.05-1.4-.32-2.02-.43Z"/><path class="cls-1" d="m122.8,14.69c-2.3,1.29-3.22,3.18-5.12,3.03.91-.88,1.87-.82,1.89-3.07,1.09.04,2.15.05,3.24.03Z"/><path class="cls-1" d="m212.07,26.16c6.43-.16.43-1.16.43-1.16,2,0,4,0,5,2-1,0-3,0-4.33.44-1.15,0-1.15-.07-1.11-1.28Z"/><path class="cls-1" d="m18,11.93c.5,2.07,3.5.07,3.5,1.07,0,2-3,1-4,1-2,0,1-1-.44-2.04.3,0,.62-.02.95-.03Z"/><path class="cls-1" d="m170.65,13.89c-.15.11-1.15-.89-1.15-.89,2,0,4,0,5,1-2-1-3,1-3.93.76-.22-.29-.1-.58.09-.87Z"/><path class="cls-1" d="m332.07,11.69c-.23-.71.21-1.17.42-1.69.09-.21.22-.41.35-.6.2-.3.21-.55-.04-.86-.31-.37-.28-.4-.26-1.13h.85c.21.42.1,1.01.74,1.29.23.1.48.62.36,1.06-.03.11-.03.26-.1.33-.36.33.14.99-.44,1.17-.37.12-.8.05-1.2.12-.21.04-.41.18-.68.31Z"/><path class="cls-1" d="m100.4,9.87c-1.9.13-3.9,1.13-4.9-1.87,1,0,3,1,3.6,1.67.39.08.77.12,1.31.2Z"/><path class="cls-1" d="m107.4,26.81c-.13,1.51-.92.34-1.63.09,1.14-2.24,3.65,2.14,5.08,1.65-.75-.22-2.22-.68-2.73-.83-.2-.25-.43-.53-.73-.9Z"/><path class="cls-1" d="m112.28,19.26c-.41,2.24-2.02,1.89-3.82-.27,0,0,.8.17.67-.13.94-.13,1.97.25,3.16.4Z"/><path class="cls-1" d="m81.91,18.87c-2.2-3.79-.05-1.86,1.48.35-.49-.12-.99-.24-1.48-.35Z"/><path class="cls-1" d="m29.31,12.15c-1.81-.15-3.81-.15-4.81-1.15,2,0,4-1,4.85.63.48.18.48.2-.04.51Z"/><path class="cls-1" d="m120.55,20.86s.82-10.76,1.34.41c-.52.17-.91.04-1.34-.41Z"/><path class="cls-1" d="m19.11,32.07c1.84-1.52,3.1-.76,4.41-.06-1.17.16-2.32.3-3.53.38-.69.1-1.03.01-.88-.32Z"/><path class="cls-1" d="m255.69,23.28c-.14.62-.21,1.16-.39,1.66-.09.24-.41.57-.6.56-.67-.06-.76.45-1.01.83-.04.07-.11.12-.17.18-.49-.41-.39-.98-.4-1.51,0-.25,0-.49,0-.74-.05-.96-.05-.96.88-.97.49,0,.99,0,1.69,0Z"/><path class="cls-1" d="m269.58,17.41c0-1.6-.11-3.05.04-4.47.1-.95.54-1.88,1.21-2.63.02-.02.08,0,.21,0-.05.53.2,1.04-.16,1.61-.24.37-.11.9-.26,1.37-.25.78-.26,1.65-.28,2.48-.02.59-.17,1.09-.76,1.64Z"/><path class="cls-1" d="m243.86,19.62c.11,1.02-.08,1.84.28,2.6.06.13.07.36,0,.49-.4.77-.16,1.6-.25,2.39-.06.54-.17,1.08-.26,1.64-.24,0-.44,0-.63,0-.03-.07-.1-.14-.09-.21.08-.96.19-1.92.24-2.89.04-.99,0-1.99.02-2.99,0-.38.21-.7.69-1.04Z"/><path class="cls-1" d="m211.14,16.33c-.64-.33-1.64.67-2.64.67-2-1-1-2,.69-2.32.68.5,1.29,1.07,1.95,1.64Z"/><path class="cls-1" d="m105.53,29.32c1.87.86,2.3-2.61,4,1.61-1.43-.49-2.13-.75-3.72-1.26-.06-.02-.13-.16-.28-.35Z"/><path class="cls-1" d="m109.64,23.91c.09-.22-.77-1.32-.77-1.32-.1-.9,1.38-1.44,2.19-1.26,0,0,.08.92.32,1.24-.43.76-.52.83-1.74,1.34Z"/><path class="cls-1" d="m231.08,26.39c-.52-.29-.78-.43-1.05-.58-.15.15-.29.29-.44.44-.05-.04-.12-.07-.15-.12-.22-.42.24-.81.03-1.29-.17-.38-.07-.9-.02-1.35.05-.51.22-1.01.22-1.51,0-.53.1-1.01.45-1.5.15.11.39.19.44.34.1.25.21.67.09.8-.48.49.04,1.22-.46,1.69-.1.1-.09.52,0,.58.64.44.44,1.08.49,1.67.02.2.18.39.38.82Z"/><path class="cls-1" d="m277.57,14.17c-.42.87.39,1.56.25,2.34-.53.23-.93.08-1.29-.34-.47-.53-.99-1-1.26-1.71-.14-.37-.15-.67-.15-1.08.8.43,1.77.2,2.45.78Z"/><path class="cls-1" d="m107.78,11.37c.55-.26,1.35-1.05,2.24-.95-1.59,1.59-3.2,2.22-6.01.08,0,0,.86.13,1.1.04.85.65,1.75.8,2.67.83Z"/><path class="cls-1" d="m250.12,5.94c.12-.1.25-.21.39-.32.03.02.12.06.12.1-.01,1.28.24,2.5.7,3.7.29.75.32,1.59.05,2.38-.13.39-.41.68-.88.81-.14-.48-.18-.89-.15-1.39.1-1.49.05-2.99.02-4.48,0-.26-.16-.51-.26-.79Z"/><path class="cls-1" d="m240.5,27.1c-.62-.71-.32-1.45.04-2.22.31,0,.71-.12.95.02.78.44,1.69.3,2.48.65.07.03.12.11.26.25-.27.12-.5.32-.73.31-1.13-.05-2.03.5-3,.99Z"/><path class="cls-1" d="m69.61,9.34c-1.56,1.09-2.26,1.84-5.32.79,1.13-.12,3.36-.34,4.61-.72.17-.03.4-.04.71-.06Z"/><path class="cls-1" d="m106.14,22.44c-4.64-6.44,1.36-1.44,1.36-1.44,0,1-1,2-1.4,2.51q-.27-.46.04-1.07Z"/><path class="cls-1" d="m114.34,16.99c.16,0,1.16,6.01.93-.16-.27.09-.58.11-.93.16Z"/><path class="cls-1" d="m261.42,15.28c-.24.12-.44.3-.65.31-.65.04-1.31.03-1.97,0-.45-.01-.89-.48-.92-.92-.04-.57.18-.78.75-.83.85-.08,1.5.33,2.14.78.23.16.4.39.65.64Z"/><path class="cls-1" d="m50.88,11.08c1.26-.06,3.67-.4,4.86-.57-1.52-.56-2.07,1.06-3.28,1.25,0,0,.89-.91.35-.98-.81.31-.99.34-1.93.31Z"/><path class="cls-1" d="m36.29,25.52c-3.02-.02-2.17,2.22-5.09,1.97,1.29-.22,1.03-.99,2.32-1.44,1.03-.25,1.91-.4,2.77-.53Z"/><path class="cls-1" d="m111.17,24.46c.33-.46-5.67,4.54-.65-1.04q.58.38.65,1.04Z"/><path class="cls-1" d="m40.97,14.29c2-.32,3.22-.49,5.66-.85-1.22.18-3.89-.3-4.75,1.17-.46-.03-.7-.11-.91-.33Z"/><path class="cls-1" d="m243.87,18.4c.2-.53.54-.59.93-.55.67.06,1.18-.13,1.54-.78.2-.36.58-.63,1.01-.83.4-.18.68-.2.95.14.14.18-.07.82-.36.96-1.04.5-2.08,1-3.13,1.47-.4.18-.69-.06-.94-.41Z"/><path class="cls-1" d="m94.6,17.81c1.9-.81,2.9.19,1.9,2.19q-1-1-2-1.82c-.03-.14.06-.23.1-.37Z"/><path class="cls-1" d="m107.16,25.64c.49-.76,1.14-1.45,2.58-1.95.08.92-.68.71-.73,1.31-.65.14-1.22.42-1.85.64Z"/><path class="cls-1" d="m42.82,16.08c-1.34,1.44-2.6,1.64-3.85,1.84-.22-.82,1.01-.99,2.7-1.41.33-.15.76-.28,1.15-.43Z"/><path class="cls-1" d="m79.46,16.75c1.48.21,3.32.33,4.59,1.06-.89-.09-2.3.39-3.98-.78-.21-.07-.33-.15-.61-.28Z"/><path class="cls-1" d="m91.7,17.36c-.07.43.5,1.88.78,2.6-3.4-1.39-.07-2.01-1-2.73.07.04.15.09.22.13Z"/><path class="cls-1" d="m89.3,15.92c.2-5.92,1.2-2.92,1,.45-.3-.21-.67-.31-1-.45Z"/><path class="cls-1" d="m111.24,19.33c.26-.33-.74,10.67-1.17-.46.32-.01.75.29,1.17.46Z"/><path class="cls-1" d="m99.65,22.13c-.1-.95,1.17-1.32.07-3.08,1.1,1.76,1.99,2.75.03,3.12-.02,0-.06-.02-.09-.04Z"/><path class="cls-1" d="m291.14,19.62c-.34-.28-.58-.57-.24-1.02.29-.38.06-.67-.23-.93-.86.47-1.76.83-2.86.68-.02-.27-.03-.58-.05-.87.82-.25,1.67-.21,2.42-.58.14-.07.41,0,.56.1.55.38.91,1.74.66,2.35-.04.11-.17.18-.26.27Z"/><path class="cls-1" d="m136.52,21.55c-1.33,1.1-2.25,1.42-3.19,2.63.04-1.78.99-2.95,2.9-2.8.1.05.19.11.3.17Z"/><path class="cls-1" d="m324.99,10.62c.05.57-.05.91-.57,1-.18.03-.35.2-.52.21-.35.03-.72.16-1.02-.2-.11-.14-.34-.27-.5-.25-.81.08-1.37-.33-1.92-.95.8-.12,1.51,0,2.25.16.74.15,1.53.03,2.28.03Z"/><path class="cls-1" d="m267.78,14.89c-.76.39-.48,1.75-1.75,1.43.4-.76.72-1.5,1.17-2.16.51-.74,1.89-.69,2.53.02.15.17.07.48-.18.59-.18.07-.38.11-.57.11-.45.02-.89,0-1.19,0Z"/><path class="cls-1" d="m225.42,24.03v1.31c-.27-.56-.26-1.15-.18-1.71.06-.46.35-.92.78-1.15.47-.25.99-.53,1.49-.55.43-.02.74.43.94.88-.84.76-2.08.58-3.02,1.22Z"/><path class="cls-1" d="m84.59,15.59c-.65-.9-1.78-2.89,1.39-.87-.5.27-.74.67-1.39.87Z"/><path class="cls-1" d="m240.65,14.68c-.1-.64-.22-1.1-.23-1.56-.03-1.16,0-2.32-.01-3.47q0-.41.5-.84c.56.5.65.86.34,1.52-.33.7-.52,1.33-.14,2.13.22.47.06,1.14.02,1.72,0,.12-.22.24-.48.5Z"/><path class="cls-1" d="m43.11,15.49c1.6-.13,2.57-1.1,3.81-1.29,0,0-.96.96-.77.64-.89.27-1.91.46-3.04.66Z"/><path class="cls-1" d="m47.95,22.46c3.21-1.06,4.59-1.38,7.3-2.01-.34,1.38-3.6,1.51-5.8,1.79-.79.22-.95.13-1.5.22Z"/><path class="cls-1" d="m302.11,14.19c-.31.17-.53.3-.76.43-1-.87-2.39-1.38-2.91-2.91.69-.09,1.22-.13,1.61.57.2.36.63.6.99.86.4.28.72.62,1.07,1.05Z"/><path class="cls-1" d="m319.71,9.36h-1.52c-.34-.32-.64-.59-.97-.9.19-.58.67-.73,1.17-.83.2-.04.41,0,.62,0,1.05,0,1.22.31.78,1.35-.04.1-.05.22-.08.39Z"/><path class="cls-1" d="m39.42,13.55c-.22,0-11.92-.55-.16-.61.05.2.1.39.16.61Z"/><path class="cls-1" d="m263.61,1.93c-.1.6.12,1.22-.23,1.86-.18.32-.04.81-.03,1.23.01.51-.2.92-.58,1.25-.07.06-.22.04-.42.07,0-.65.01-1.26,0-1.87-.02-.6.32-1.13.3-1.76,0-.3.3-.8.96-.77Z"/><path class="cls-1" d="m71.4,13.15c.77,1.49-.31,1.58-1.41,1.68q-.45-.59-.43-1.24c.22-.33,1.01-.38,1.84-.44Z"/><path class="cls-1" d="m240.16.59h.69c.11,1.48.8,2.88.82,4.42-.86,0-.95-.08-1.02-.68-.05-.47-.2-.92-.23-1.39-.04-.48-.02-.94-.24-1.4-.11-.23-.02-.57-.02-.95Z"/><path class="cls-1" d="m133.15,23.15c1.26-5.4,1.12-.18,2.04-.5-.96,2.09-1.86,1.53-2.77.95,0,0,.93-.31,1-.34,0,0,.05-.06-.27-.11Z"/><path class="cls-1" d="m260.39,19.05c-.12-.8.43-1.45.24-2.19-.02-.08.08-.21.16-.3.25-.29.53-.32.84-.08.3.22.79.23.74.78-.06.6-1.03,1.68-1.68,1.83-.07.02-.15-.02-.3-.04Z"/><path class="cls-1" d="m222.1,16.85c.22,0,.47,0,.72,0,.04.06.11.13.12.2.1.76-.24,1.28-.93,1.54-.72.27-1.45.55-2.26.5-.17-.55.31-.85.51-.88.87-.14,1.22-.9,1.84-1.36Z"/><path class="cls-1" d="m52.23,14.64c.92-1.47,3.76-1.2,4.99-1.4.82,1.28-2.46.41-3.83,1.45-.4,0-.78-.03-1.16-.05Z"/><path class="cls-1" d="m74.81,18.99q-1.06.32-1.33-.09c.41.02.74.04,1.33.09Z"/><path class="cls-1" d="m222.46,26.06c.7.14,1.14.75,1.78.54.47-.15.9-.42,1.42-.66-.07-.04-.04-.03-.02,0,.66.66.73.86.42,1.2-.56-.13-1.56-.13-3.03.25-.74-.17-.54-.77-.57-1.32Z"/><path class="cls-1" d="m59.08,9.83c2.96-1.62.58.88,1.81.38-.15-.24-1.05-.29-1.81-.38Z"/><path class="cls-1" d="m299.33,14.24c-.11-.5-.22-1-.36-1.61.54.04.96-.14,1.45.19.36.24.99-.18,1.33.37-.88,1.15-1.15,1.26-2.42,1.05Z"/><path class="cls-1" d="m295.7,10.56c.02.27.12.52.04.64-.27.42-.55.88-.94,1.17-.71.52-1.07.53-2.25.45.74-1.15,1.88-1.7,3.15-2.27Z"/><path class="cls-1" d="m54.38,9.96c2.22-.33,4.56-.64,6.88-.92-2.32.28-3.49.43-6,.81-.24.05-.55.07-.88.11Z"/><path class="cls-1" d="m161.63,13.75c-11.13.25-11.13-.75-.26-.55.27.06.31.25.26.55Z"/><path class="cls-1" d="m130.01,21.09c.58-1.48,1.54-1.71,2.5-1.96-.02.89-.97,1.14-.88,1.79-.42.26-.79.31-1.62.17Z"/><path class="cls-1" d="m109.6,14c-2.6-.44-4.96-1.08-5.57-1.44s.52-.45,5.04.09c.61.38.42.85.53,1.35Z"/><path class="cls-1" d="m267.09,11.08h.77c-.14,1.01.14,1.99-.25,2.98-.19.48.05,1.11-.29,1.61-.06.08-.2.1-.33.17-.49-.82.12-1.55.1-2.31-.03-.81,0-1.63,0-2.46Z"/><path class="cls-1" d="m188.48,16.95c-.98.05-2.98-.95-1.98-1.95,0,0,2-1,1.91,1.3.06.22.05.43.07.65Z"/><path class="cls-1" d="m31.05,25.8c.94-.1,2.22-.31,3.26-1.31.56,1.5-1.04,1-2.34,1.16-.29.06-.55.09-.91.15Z"/><path class="cls-1" d="m61.03,16.13c2.49,3.26,1.24,3.49-1.31.39.4-.1.7-.21,1.31-.39Z"/><path class="cls-1" d="m40.98,19.27c-.23,0,.24-2.53.95-.31-.33.09-.63.21-.95.31Z"/><path class="cls-1" d="m73.23,16.42c-.77.04-1.85.13-2.96.23.17-1.24,2.19-.19,3.09-.27-.04.01-.09.03-.13.05Z"/><path class="cls-1" d="m133.42,31.02c-.26.45-5.94,7.37-.81-.1.31-.13.58-.19.81.1Z"/><path class="cls-1" d="m17.98,33.67c1.56-.36,2.96-.7,3.56-.3-1.15.4-2.12.71-2.67.46-.18-.08-.54-.1-.89-.16Z"/><path class="cls-1" d="m224.5,20.05c.6-.49-.33-.89.01-1.43.19.03.58-.02.66.12.28.46.89.18,1.14.6.31-.15.62-.3.94-.44.1-.04.22-.04.43-.08,0,.2,0,.35,0,.5-.04.59-.04.53-.73.52-.8-.01-1.63-.19-2.45.2Z"/><path class="cls-1" d="m299.5,3.56c-.35-.54-.67-.73-1.13-.67-.28.04-.58.04-.86,0-.32-.04-.48-.4-.46-.87.02-.39.27-.67.58-.59.43.11.92.11,1.29.46.42.4.55.7.59,1.68Z"/><path class="cls-1" d="m233.41,18.03c.02-1.3.92-2.39.37-3.78.41.17.61.26.9.38-.12.48.25,1.05-.25,1.54.63.43,0,.86-.02,1.28-.02.53-.41.63-1,.57Z"/><path class="cls-1" d="m101.49,27.94c-.6.08-1.9-.36-2.55-.59.52-.53,1.18-.31,1.72,0,.26-.2.32-.14.83.59Z"/><path class="cls-1" d="m48.88,12.26c-1.3.22-2.51.39-3.73.56,1.21-.17,2.43-.35,3.25-.65.26-.05.28-.05.48.09Z"/><path class="cls-1" d="m235.99,21.35c-.6-.42-1.24-.87-1.99-1.4.29-.26.46-.5.68-.58.18-.07.4.29.68,0,.08-.08.5.13.72.28.15.1.32.3.33.47.03.43.16.92-.41,1.23Z"/><path class="cls-1" d="m345.75,9.54c-.14.31-.25.55-.37.8-.72.07-1.46.19-1.91-.64,0-.05-.02-.15.02-.21.63-1.08,1.01-1.13,1.95-.26.11.1.22.22.31.31Z"/><path class="cls-1" d="m116.1,19.35c.4-.35,3.4-1.35,1.04,1.12-.42-.45-.71-.77-1.04-1.12Z"/><path class="cls-1" d="m128.53,15.97c-1.91.66-3.96,1.84-2.51-1.07,1.02-.02,1.77.39,2.51,1.07Z"/><path class="cls-1" d="m65.4,15.64c12.92-1.2,1.18-.44,1.76-.21-.52.07-.96.21-1.76.21Z"/><path class="cls-1" d="m34.49,18.75c.82-.35,2.02-.49,3.24-.65q-1.22.16-1.89.49c-.46.08-.91.11-1.36.16Z"/><path class="cls-1" d="m52.38,14.92q-.65.73-1.55.47c.43-.13.88-.27,1.55-.47Z"/><path class="cls-1" d="m243.93,8.26c-.01-.13-.06-.25-.02-.28.55-.54.89-1.15,1.03-1.94.06-.37.21-.96.9-.98v1.69c-.56.47-1,1.27-1.91,1.52Z"/><path class="cls-1" d="m55.13,19.37c1.96,1.31-2.18.27-3,1.06.96-.36,1.94-.7,3-1.06Z"/><path class="cls-1" d="m101.58,8.4c-2.08,1.6,2.92-.4,1.39,1.44-.77-.07-1.31-.59-1.39-1.44Z"/><path class="cls-1" d="m79.97,15.34c-.26-.26,3.39-3.25,1.02.47-.34-.16-.68-.31-1.02-.47Z"/><path class="cls-1" d="m60.81,17.06c1.69-.06,2.69-.06,4.69-.06-1,0-2,0-2.5-.24-.67.1-1.4.19-2.18.3Z"/><path class="cls-1" d="m103.5,21.3c.09-.18.65,9.4-.86-.24.24.07.53.14.86.24Z"/><path class="cls-1" d="m64.28,13.46c-.21.13-1.83-.32-1.83-.32,1.18-.16,3.49-.46,4.63-.59,0,0-1.14.13-1.07.17-.83.13-1.41.35-1.74.74Z"/><path class="cls-1" d="m212.36,31.14c2.14-2.14,3.14-2.14,2.01.4-.63-.06-1.26-.23-2.01-.4Z"/><path class="cls-1" d="m73.73,12.61c-.76.09-1.82.16-2.9.24,0,0,.65-.7.59-.64.74-.04,1.46.07,2.31.41Z"/><path class="cls-1" d="m55.56,17.3c-.02-.25.04,1.76-1.83.25.57-.08,1.14-.16,1.83-.25Z"/><path class="cls-1" d="m266.74,23.14c.33-.33.68-.55.81-.86.08-.19.46-.41.14-.79-.11-.13.19-.59.34-1.01.26.23.51.35.58.55.08.21.09.52,0,.72-.32.65-.7,1.27-1.1,1.99-.28-.22-.48-.38-.76-.6Z"/><path class="cls-1" d="m104.81,16.74c-.44.47,3.53,1.35.19,1.1-.05-.34-.12-.69-.19-1.1Z"/><path class="cls-1" d="m301.72,3.42c.36-.94,1.03-1.44,1.87-1.77.27-.11.46.1.62.28.19.21.06.35-.09.52-.07.08-.08.21-.11.32-.73.21-1.47.42-2.3.65Z"/><path class="cls-1" d="m101.87,26.14c-.37-.14-1.37-.14-1.77-.38.48-.05.97-.13,1.77.38Z"/><path class="cls-1" d="m95.31,18.88c2.31.47,4.42,1.15,5,1.49s-.37.32-4.17-.6c-.42-.16-.51-.59-.83-.89Z"/><path class="cls-1" d="m55.82,13.17c.16.27-1.07.48-1.79.28.58-.09,1.19-.19,1.79-.28Z"/><path class="cls-1" d="m219.96,28.53c-.46.47,5.54-4.53.44,1.62-.58-.38-.5-.94-.44-1.62Z"/><path class="cls-1" d="m250.52,29.79c-.24-.96-.45-1.82-.67-2.73h.93c.64,2.3.34,2.2-.26,2.73Z"/><path class="cls-1" d="m29.81,20.72c-1.04.06-2.12.12-3.17.17,1.06-.05,2.13-.11,3.14-.28.01.04.03.07.04.11Z"/><path class="cls-1" d="m267.31,16.51c-.89-.58-1.31-1.18-1.15-2.15.29,0,.57-.02.85,0,.46.04.83.5.58.83-.28.37-.15.77-.27,1.32Z"/><path class="cls-1" d="m55.1,19c.51.06,1.82-.22,1.85-.14-1,.21-1.31.16-1.85.14Z"/><path class="cls-1" d="m207.57,23.17c-.07-.17-6.07,4.83-1-1.29.95.14,1.01.2,1,1.29Z"/><path class="cls-1" d="m133.34,21.16c.06.36-5.78,6.59-.71-.34.21.1.43.2.71.34Z"/><path class="cls-1" d="m255.29,19.29c.63.56,1.26,1.12,1.96,1.75-.17.14-.28.3-.38.29-.62-.02-1.47-.72-1.85-1.19-.37-.45.06-.55.27-.86Z"/><path class="cls-1" d="m170.81,11.24c.69-.24,1.69.76,2.69.76q-1,0-2-.12c-.37-.13-.57-.31-.69-.64Z"/><path class="cls-1" d="m116.22,15.88c.23-5.88,1.19-5.84,1.02-.4-.32.18-.68.28-1.02.4Z"/><path class="cls-1" d="m208.48,27.66c-.98.34-2.98.34-3.98.34,1-1,2-1,2.72-.54.39.07.78-.2,1.25.2Z"/><path class="cls-1" d="m289.96,10.73c-.2.15-.34.33-.47.32-.73-.03-1.42.43-2.26.27.36-.86,1.1-.95,1.72-1.19.3-.12.46.02,1.01.6Z"/><path class="cls-1" d="m32.28,29.99q1.1-.52,2.47-1.16c-.83.39-1.54.73-2.47,1.16Z"/><path class="cls-1" d="m247.37,19.84c.53-.01.76.19.78.69.02.53-.18.78-.65.81-.6.04-.84-.18-.84-.75,0-.52.21-.74.72-.75Z"/><path class="cls-1" d="m125.07,32.04c.53-.06,2.47-1.44,3.44-1.7-.98,1.22-1.95,1.45-2.88,1.96-.13.04-.31-.14-.56-.26Z"/><path class="cls-1" d="m146.73,15.2c-.23-.2,5.77.8-.55.71-.09-.05.08-.25.55-.71Z"/><path class="cls-1" d="m76.05,14.4q-.29.69-1.77,0c.65.05.94-.2,1.77,0Z"/><path class="cls-1" d="m284.54,18.54c-.7.08-1.4.17-2.2.26-.02-.22-.05-.52-.08-.85.47-.05.78-.59,1.34-.16.31.23.92.06.93.75Z"/><path class="cls-1" d="m29.97,20.65c.98-.03,2-1.03,3.14-1.13-1.14.1-2.26.19-2.08.72-.26.12-.61.23-1.06.41Z"/><path class="cls-1" d="m29.6,27.44c.35.25.59,5.09-.32.44-.34-.03-.15-.19.32-.44Z"/><path class="cls-1" d="m64.55,10.38q-1.01.54-2.15.32c.32-.24,1.24-.2,2.15-.32Z"/><path class="cls-1" d="m63.56,19.22c1.19-.04,2.4-.23,3.59-.4-1.19.17-2.4.37-3.44.43-.05,0-.09-.02-.14-.03Z"/><path class="cls-1" d="m279.29,19.67c.36.63,1.35.87,1.33,1.92-1.22.18-1.37-.81-1.83-1.57.17-.12.33-.23.5-.35Z"/><path class="cls-1" d="m79.46,14.62c2.29,3.58,1.36,3.52-.95.05.31,0,.58-.03.95-.05Z"/><path class="cls-1" d="m224.02,5.35c-.2-.65-.38-1.27-.58-1.91.12-.11.24-.22.37-.34.46.24.91.51.89,1.14-.01.44.11.93-.68,1.1Z"/><path class="cls-1" d="m236.17,31.76c-.06-.85-.53-1.59-.82-2.36-.2-.55.12-.47.27-.64.7.15.54.82.76,1.23.23.43,0,1.41-.22,1.77Z"/><path class="cls-1" d="m280.66,16.83c.15.56.17.87,0,1.24-.19.41-.24.88-.38,1.32-.05.18-.11.41-.25.5-.17.12-.42.12-.64.17-.39-.8.49-1.03.61-1.59.11-.5.38-.97.65-1.65Z"/><path class="cls-1" d="m260.7,3.58c-.12-.29-.39-.64-.31-.85.19-.47-.13-.88-.01-1.28.09-.32.36-.59.6-.95.15.25.41.52.36.61-.44.76.05,1.75-.63,2.46Z"/><path class="cls-1" d="m208.59,18.01c-.09,5.99-1.09,5.99-1.53-.14.43.01.87.08,1.53.14Z"/><path class="cls-1" d="m123.92,19.62c.66.1,1.67,0,2.36.9-1.02.48-1.63.25-2.36-.9Z"/><path class="cls-1" d="m290.4,8.17c.16.16.22.22.31.31-.24.96-1.19,1.15-1.94,1.76,0-1.25.95-1.55,1.63-2.07Z"/><path class="cls-1" d="m49.3,16.69c.23.12,1.53-.13,1.53-.13-1.3.25-2.6.51-3.9.76,0,0,1.3-.25.92-.48q.71,0,1.45-.15Z"/><path class="cls-1" d="m127.78,19.19q-.16-.82,1.04-1.19c-.32.37-.65.75-1.04,1.19Z"/><path class="cls-1" d="m128.69,26.57c-.15.94-.16,1.88-2.15,2.29.71-.82,1.62-1.4,2.15-2.29Z"/><path class="cls-1" d="m73.34,16.78c-.41.25-.88-.32-1.82-.45.88-.14,1.18.25,1.82.45Z"/><path class="cls-1" d="m169.33,13.99c12.17-5.99,1.17-5.99.84-.31-.22.08-.47.17-.84.31Z"/><path class="cls-1" d="m96.16,10.84c.11.36.31.78-.04.84-4.94-.83-.14-.86-.6-1.16.2.1.39.19.64.32Z"/><path class="cls-1" d="m249.63,21.67c-.05.89-.11.96-.84.96-.71,0-.79-.09-.81-.96h1.66Z"/><path class="cls-1" d="m126.98,22.1q-.39,1.15-1.37,1.46c0-1.02.17-1.27,1.37-1.46Z"/><path class="cls-1" d="m279.44,18.92c-.33-.87.35-.97.75-1.22.31-.19.48-.07.95.5-.41.56-1.05.58-1.7.72Z"/><path class="cls-1" d="m120.25,20.53c.39.26,6.34.83.13,1.07-.36-.36-.23-.68-.13-1.07Z"/><path class="cls-1" d="m235.38,25.24c.74.41,1.13,1.02,1.03,1.92-.48.33-.73.1-.84-.38-.06-.27-.07-.55-.15-.81-.06-.2-.18-.39-.27-.58l.24-.15Z"/><path class="cls-1" d="m286.68,15.69c-.27-.31-.48-.56-.69-.81-.08-.09-.15-.18-.22-.26.5-.68.66-.73,1.08-.38.59.5.59.71-.17,1.45Z"/><path class="cls-1" d="m64.33,13.48q-1.45.27-1.22-.11c.7-.06.79.06,1.22.11Z"/><path class="cls-1" d="m7.7,19.81c-.2-.81-.2-2.81,1.38-1.13-.34.51-.45,1.31-1.38,1.13Z"/><path class="cls-1" d="m236.21,18.56c-.02-.2-.03-.31-.04-.43-.05-.4.07-.73.48-.83.41-.09.67.11.77.54.04.17.19.32.33.56-.54.26-1.04.09-1.54.16Z"/><path class="cls-1" d="m30.93,28.69c-.98-1.01.31,2.82-1.54.3.55-.17,1.16-.41,1.54-.3Z"/><path class="cls-1" d="m159.76,15.62c-.26.38.74-5.62.5-.07-.14.05-.29.04-.5.07Z"/><path class="cls-1" d="m93.12,11.16c.85.83-.4-3.05,1.27.43-.39-.08-.75.06-1.27-.43Z"/><path class="cls-1" d="m222.44,26.16c-.6-.42-1.39-.57-1.19-1.48.55-.19.93.13,1.28.4.46.35.06.7-.09,1.08Z"/><path class="cls-1" d="m152.77,15.01c1.73,2.99-1.27-.01-.99.85.13-.45.65-.59.99-.85Z"/><path class="cls-1" d="m100.66,16.67c-.19-.38-.38,1.91-1.23-.55.39.09.8-.02,1.23.55Z"/><path class="cls-1" d="m106.17,20.81c.92,5.67-.11,2.72-.83-.21.25.06.5.12.83.21Z"/><path class="cls-1" d="m41.06,21.53c-1.08-4.6,1.97-.37,1.46-.64.09.12-.48.37-1.46.64Z"/><path class="cls-1" d="m123.06,21.92q.54-.22,1.96-.13c-.66.06-1.26.1-1.96.13Z"/><path class="cls-1" d="m29.83,9.42c-.28.31-.33.71-1.41.58q-.1-.53,1.41-.58Z"/><path class="cls-1" d="m30.11,29.89c.57.13-.72.36-1.27.42.42-.14.84-.28,1.27-.42Z"/><path class="cls-1" d="m37.97,11.18c-.26-.3,6.73.02-.75.28.23-.09.45-.17.75-.28Z"/><path class="cls-1" d="m247.61,25.5c.51-.7.51-.71,1.03-.52.35.13.7.28,1.02.42-.15.29-.26.5-.33.64-.55-.17-1.09-.34-1.73-.54Z"/><path class="cls-1" d="m299.5,4.02c.6-.41.98.33,1.62.02-.18.57-.3.96-.44,1.39-.72-.23-.9-.84-1.19-1.41Z"/><path class="cls-1" d="m275.12,26.44c-.68.64-.79,1.68-1.71,2.27q.78-2.29,1.71-2.27Z"/><path class="cls-1" d="m237.17,27.61c-.32-.06-.6.19-.76-.28-.18-.52-.45-.96.08-1.4q.69.57.67,1.67Z"/><path class="cls-1" d="m174.65,16.02q1.04.18,1.1.84c-1.09-.16-1.37-.37-1.1-.84Z"/><path class="cls-1" d="m46.93,22.99c.51.02-.9.38-1.41.59.35-.15.73-.31,1.41-.59Z"/><path class="cls-1" d="m72.25,14.65c-.08,0,.98-.07,1.35-.08-.22.09-.42.1-1.35.08Z"/><path class="cls-1" d="m233.25,11.83c.13.31.22.5.37.85-.15.24-.43.68-.73,1.15-.63-.72-.63-.77.36-2.01Z"/><path class="cls-1" d="m109.26,26.95c.03.22.71-.49.84-.07-.26.02-.54.05-.84.07Z"/><path class="cls-1" d="m179.54,15.84c.96.16.96-5.84,1.8-.15-.39.25-1.08.18-1.8.15Z"/><path class="cls-1" d="m45.89,10.01c-.59-1.5.95.08,2.33-.59-.78.16-1.66.26-2.33.59Z"/><path class="cls-1" d="m115.72,17c.08-.42-.82-.52-.5-.77.18.24.33.51.5.77Z"/><path class="cls-1" d="m279.99,14.72c-.21-.21-.32-.32-.44-.44.33-.24.19-.94.81-.87.25.03.48.2.69.3-.06.74-.72.63-1.06,1.02Z"/><path class="cls-1" d="m84.42,13.91c.04.19-.86.12-.75.22-.32-.29-.15-.33.75-.22Z"/><path class="cls-1" d="m178.1,13.4c-5.6-.4.4-1.4.71-1.02-.21.32-.42.62-.71,1.02Z"/><path class="cls-1" d="m99.33,29.61c-.14-.75-1.81.11-1-1.14.33.37.64.73,1,1.14Z"/><path class="cls-1" d="m43.56,10.93c-.04.4-1.2.52-1.14.61-.26-.29-.01-.42,1.14-.61Z"/><path class="cls-1" d="m128.58,33.49q-1.08.24-1.2-.42,1.16-.55,1.2.42Z"/><path class="cls-1" d="m21.61,35.58c.2.15-.99.34-1.42.76q.38-.32,1.42-.76Z"/><path class="cls-1" d="m73.15,8.14c.15-.12,1.49,3.83-.73-.09.1.01.42.05.73.09Z"/><path class="cls-1" d="m107.03,10.75c1.47-5.75,1.47.25,2.11.61-.73-.21-1.38-.39-2.11-.61Z"/><path class="cls-1" d="m211.89,20.07c-6.39-.07-.39-1.07-.61-.58.22.13.37.35.61.58Z"/><path class="cls-1" d="m111.14,17.18c.33-.26,5.66,1.4.21.62-.09-.04-.13-.37-.21-.62Z"/><path class="cls-1" d="m247.19,24.8c.64.14,1.33-.23,1.94.35-.29.55-.83.6-1.16.31-.25-.22-.95.19-.78-.65Z"/><path class="cls-1" d="m134.76,29.99c.77-.51,1.06-.27,1.18.25q-1.15.55-1.18-.25Z"/><path class="cls-1" d="m258.15,17.1v-.7h1.66c.28.63-.39.52-.59.66-.23.17-.69.04-1.07.04Z"/><path class="cls-1" d="m121.34,24.83c.35-.19,6.24.1.24.86-.32-.02-.47-.45-.24-.86Z"/><path class="cls-1" d="m243.13,17.78v1.16c-.7.06-.92-.04-.97-.45-.06-.45.13-.6.97-.72Z"/><path class="cls-1" d="m245.67,4.72c-.14-.72-.24-1.24-.36-1.86.31-.02.53-.03.76-.04q.1,1.23-.4,1.9Z"/><path class="cls-1" d="m167.04,17.92c-5.54.08-5.54-.92.87-.84-.25.24-.51.49-.87.84Z"/><path class="cls-1" d="m221.66,15.29c.22.99-.64,1.09-1.05,1.53.07-.66-.01-1.42,1.05-1.53Z"/><path class="cls-1" d="m246.29,23.73c.18-.57.29-.94.43-1.38h.93c-.04.23,0,.54-.13.65-.31.26-.71.44-1.23.73Z"/><path class="cls-1" d="m143.6,18.13c-.1-.13.9-1.13.72-1.33.22.43-.36.76-.72,1.33Z"/><path class="cls-1" d="m234.04,21.61c.66.15,1.01.55,1.18,1.19-.97.04-1.24-.23-1.18-1.19Z"/><path class="cls-1" d="m103.91,30.08c-.97-.63-1.62-.85-1.43-1.39.72.09,1.04.37,1.43,1.39Z"/><path class="cls-1" d="m138.27,21.26c-.33-.47.57-.81,1.13-.74q-.6.6-1.13.74Z"/><path class="cls-1" d="m297.44,15.48c.62-.35,1.14-.64,1.78-.99.04.32.07.54.11.79-.61.04-1.11.52-1.88.2Z"/><path class="cls-1" d="m61.54,15.93c.28-.02,1.49-.22,2.16-.21q-.66.14-2.16.21Z"/><path class="cls-1" d="m42.66,26.84c.85.02,1.86-.97,1.81-.84-.96.32-1.13.55-1.81.84Z"/><path class="cls-1" d="m289.82,23.13c-.18-.79.29-1.05.81-1.32.19,1.16.19,1.17-.81,1.32Z"/><path class="cls-1" d="m98.74,11.87c.21-.34,0-1.04.87-.69-.05.77-.15.86-.87.69Z"/><path class="cls-1" d="m28.23,22.66c-.38.02.73-.06.64-.46.22.1-.03.28-.64.46Z"/><path class="cls-1" d="m246.5,3c.7.69-3.35-.61-4,0-.69-.57,3.35.74,4,0Z"/><path class="cls-1" d="m116.96,22.57q.92-.08.77.47c-.28-.17-.53-.32-.77-.47Z"/><path class="cls-1" d="m64.03,15.39c.21.14-.99.32-1.57.38.13-.34,1-.26,1.57-.38Z"/><path class="cls-1" d="m1.65,23.79q-.15-.79.95-.52c-.1.47-.4.66-.95.52Z"/><path class="cls-1" d="m135.73,13.5q-.85,1.01-1.67.37c.57-.12,1.1-.24,1.67-.37Z"/><path class="cls-1" d="m138.54,22.84c.6-.81,1.18-1.16,1.91-1.29-.57.65-1.13,1.03-1.91,1.29Z"/><path class="cls-1" d="m185.96,20.03c-1.46-.03-1.46-1.03-2.09-1.06.67.34,1.64.41,2.09,1.06Z"/><path class="cls-1" d="m107.16,19.82c-4.8-1.48-.29-1.2-.36-.83.29.2.49.51.36.83Z"/><path class="cls-1" d="m89.5,19.25c-.11.03-5.45-1.44-.63-.43.18.08.38.26.63.43Z"/><path class="cls-1" d="m259.77,24.62c-.98-.13-1.11-.4-.54-1.2q.64.58.54,1.2Z"/><path class="cls-1" d="m150.53,19.66c-.03.34-1.03.34-.7-.1.37-.19.6-.19.7.1Z"/><path class="cls-1" d="m105.9,29.31q.05-.57.08-1.11c.24.46-.02.68-.08,1.11Z"/><path class="cls-1" d="m260.31,22.13c-.42.3-.73.52-1.1.78-.11-.52-.18-.97.41-1.33.18.14.38.3.69.55Z"/><path class="cls-1" d="m58.35,16.16c-.71-.19.54-.41.77-.3-.17.09.19.18-.77.3Z"/><path class="cls-1" d="m213.72,22.24q.78-.24,1.03.46c-.51.14-.84,0-1.03-.46Z"/><path class="cls-1" d="m284.37,15.64c.56-.04,1.1-.16,1.24.66h-1.24v-.66Z"/><path class="cls-1" d="m57.25,17.67c7.45-1.57.49.29,1.03.09-.27-.02-.55-.05-1.03-.09Z"/><path class="cls-1" d="m211.69,28.6q-1.19.4-1.57-.4c.84-.38.84-.37,1.57.4Z"/><path class="cls-1" d="m136.59,21.14q-.49,1.18-1.05,1.13c.39-.39.6-.86,1.05-1.13Z"/><path class="cls-1" d="m130.74,23.92c-.26.92-.91.75-1.45.95.28-.68.74-.95,1.45-.95Z"/><path class="cls-1" d="m163.43,13.3c.07-.3,6.07.7.28.54-.42-.09-.56-.25-.28-.54Z"/><path class="cls-1" d="m262.32,23.34c.5-.16,1-.32,1.5-.46.06-.02.22.1.24.18.02.09-.05.28-.11.3-.51.12-1.03.2-1.55.3-.03-.1-.05-.21-.08-.31Z"/><path class="cls-1" d="m38.86,11.01c.17-.33.79-.33,1.36-.4q-.17.3-1.36.4Z"/><path class="cls-1" d="m255.32,24.67c-.38-.19-.67-.33-.96-.47.12-.55.45-.68.96-.6v1.07Z"/><path class="cls-1" d="m76.38,13.64c3.08,3.85-.47.2-.41.36-.26-.22-.07-.31.41-.36Z"/><path class="cls-1" d="m290.33,9.31h-1.29c.07-.47.27-.74.71-.68.34.04.57.24.57.68Z"/><path class="cls-1" d="m266.79,18.24c-.18.3-.36.59-.55.9-.54-.62-.56-.72-.22-1.1.39-.44.54.04.77.2Z"/><path class="cls-1" d="m148.56,16.93c-.06.07.94-.93.88-.56-.19.35-.49.55-.88.56Z"/><path class="cls-1" d="m72.53,15.33c.09-.1-7.12.03-.08-.45.42.2.39.33.08.45Z"/><path class="cls-1" d="m300.02,15.67h1.32c-.14.38-.26.68-.4,1.07-.31-.36-.53-.62-.92-1.07Z"/><path class="cls-1" d="m179.97,19.71q-.27-.54.82-.53c.03.31-.13.51-.82.53Z"/><path class="cls-1" d="m223.28,21.08c-.16-.2-.27-.35-.44-.57.48-.16.86-.3,1.41-.48-.1.28-.11.49-.22.59-.2.18-.46.29-.74.46Z"/><path class="cls-1" d="m229.23,27.93c.2-.28.39-.56.59-.83.47.5.49.63.18,1-.37.42-.54.01-.76-.17Z"/><path class="cls-1" d="m114.44,26.47c.19.21-.39,5.79-.52-.12.15.03.31.07.52.12Z"/><path class="cls-1" d="m287.1,22.01v-.62h.93q0,.7-.93.62Z"/><path class="cls-1" d="m289.31,12.91h.92v.69c-.26.01-.57.03-.92.04v-.73Z"/><path class="cls-1" d="m286.48,11.31c.4-.35.63-.83,1.26-.6-.24.31-.19.82-.69.92-.14.03-.33-.18-.57-.32Z"/><path class="cls-1" d="m97.62,16.9c4.75,1.32.39.99.57.83-.22-.33-.4-.58-.57-.83Z"/><path class="cls-1" d="m49.01,19.02c.38.01-.96.3-.85.02.77-.18.44.06.85-.02Z"/><path class="cls-1" d="m301.97,8.86v.74c-.52.16-.84,0-1.03-.6.34-.04.63-.08,1.03-.13Z"/><path class="cls-1" d="m295.99,15.66c-.43.23-.72.39-1.01.54,0,0-.25-.26-.19-.38.18-.4.52-.63,1.2-.16Z"/><path class="cls-1" d="m169.1,17.66c.4.34-.6.34-.51.24.03-.07.31-.15.51-.24Z"/><path class="cls-1" d="m103.89,29.91c.18-.14-.27,2.37.73,1.2-.21-.34-.42-.69-.73-1.2Z"/><path class="cls-1" d="m54.83,17.92c-.15-.01-1.46.26-1.65.35.57-.12,1.11-.24,1.65-.35Z"/><path class="cls-1" d="m150.3,14.76c.2.24-.8.24-.75.23.25-.08.49-.15.75-.23Z"/><path class="cls-1" d="m32.59,11.27q-.08.72-1.29.56c.49-.24.42-.49,1.29-.56Z"/><path class="cls-1" d="m233.75,26.03c-.33.44-.66.89-1.01,1.33-.02.03-.2-.06-.35-.11.23-.64.82-.91,1.17-1.39.06.06.13.11.19.17Z"/><path class="cls-1" d="m98.1,13.83q.39.48.25.85c-.16-.26-.35-.47-.25-.85Z"/><path class="cls-1" d="m39.19,26.78c.95-.42,1.37-.41,2.07-.55-.89.34-1.6.63-2.07.55Z"/><path class="cls-1" d="m85.48,19.28c2.17,4.01-.68-.16-.51,0,.06-.03.24,0,.51,0Z"/><path class="cls-1" d="m62.21,17.77c-.2.03-1.45.26-1.07.38.79-.1.84-.21,1.07-.38Z"/><path class="cls-1" d="m289.09,15.3c-.6.18-.93.04-1.09-.47q.61-.22,1.09.47Z"/><path class="cls-1" d="m145.72,20.56q-.22-.56.4-1.06c.06.3.06.62-.4,1.06Z"/><path class="cls-1" d="m73.57,16.83c.42.14-6.73.22.11-.24.23.1-.17.14-.11.24Z"/><path class="cls-1" d="m208.58,20.48c.92-.48.92.52.46,1.1-.15-.36-.28-.66-.46-1.1Z"/><path class="cls-1" d="m20.83,12.85c-.33.15.67-5.85,1.07-.35-.4.13-.72.23-1.07.35Z"/><path class="cls-1" d="m297.95,20.8c.16-.39.28-.69.49-1.23.2.54.32.85.46,1.23h-.95Z"/><path class="cls-1" d="m226.53,16.55c.61.19.77.51.61,1.01-.68-.18-.67-.18-.61-1.01Z"/><path class="cls-1" d="m225.41,29.3q-.91-.3-.75-.81c.24.27.43.47.75.81Z"/><path class="cls-1" d="m99.64,13.54c.25.29,1.05.45.76.78-.25-.26-.44-.45-.76-.78Z"/><path class="cls-1" d="m272.91,23.65q-.32.93-1.45.84c.5-.29.87-.5,1.45-.84Z"/><path class="cls-1" d="m218.48,16.1q-.98-.1-.57-1.15c.35.31.54.65.57,1.15Z"/><path class="cls-1" d="m80.45,13.39c-.05-.17,5.77.9.04.49-.12-.05-.21-.31-.04-.49Z"/><path class="cls-1" d="m61.82,19.81c.26-.16.69-.31,1.52-.45-.18.18-.87.31-1.52.45Z"/><path class="cls-1" d="m65.1,16.57c.08.09-1.12.27-1.33.14.39-.04.79-.09,1.33-.14Z"/><path class="cls-1" d="m132.48,13.6c.02.4,1.02.4,1.24.37-.38-.11-.73-.21-1.24-.37Z"/><path class="cls-1" d="m303.4,13.58c.52-.4.81-.13,1.03.12-.11.17-.22.33-.38.58-.26-.29-.45-.49-.65-.7Z"/><path class="cls-1" d="m46.33,10.47c.47.03.67.1.47.25-1,.05-1.02.04-.47-.25Z"/><path class="cls-1" d="m300.49,22.68c-.39-.52-.15-.81.14-1.05.16.12.31.23.54.41-.27.25-.47.45-.69.65Z"/><path class="cls-1" d="m261.5,5c0-.47-5-1.68-5-2,.24,0,2.76,2,3,2,0,.14,4.05-.07,4,0-.17.22-1.7-.3-2,0Z"/><path class="cls-1" d="m301.75,20.14c.26-.02.49-.03.75-.05v.74c-.5.05-.65-.23-.75-.69Z"/><path class="cls-1" d="m112.18,28.4q.94-.19.59.4c-.08.03-.31-.2-.59-.4Z"/><path class="cls-1" d="m14.1,20.01q-.6.99-1.37.2c.5-.07.82-.12,1.37-.2Z"/><path class="cls-1" d="m230.97,21.83c-.03.36-.05.59-.08,1.01-.34-.32-.55-.51-.89-.84.4-.07.62-.11.98-.17Z"/><path class="cls-1" d="m267.17,17.75q-.07-.83.33-.92.07.83-.33.92Z"/><path class="cls-1" d="m80.32,14.32c-.12.17-.13.42-.92.18.12-.19.5-.19.92-.18Z"/><path class="cls-1" d="m284.05,14.65c-.19-.35-1.16-.08-.94-.87.61.05.68.56.94.87Z"/><path class="cls-1" d="m179.45,13.41c.18.28.61.45.5.71-.71-.13-.75-.19-.5-.71Z"/><path class="cls-1" d="m121.6,22.67q.03-.9.67-.69c.07.46-.21.58-.67.69Z"/><path class="cls-1" d="m301.37,16.54c.16.19.33.39.59.7-.35.06-.57.1-.85.15v-.79c.09-.02.17-.04.26-.06Z"/><path class="cls-1" d="m222.51,22.64c.5-.04.66.23.74.7-.26.02-.48.03-.74.05v-.75Z"/><path class="cls-1" d="m55.29,14.17c-7.74,1.5-.54-.52-.41-.19.17.08.25.12.41.19Z"/><path class="cls-1" d="m68.28,13.13c.36-.08-.76.04-1.27.08.54-.04.89-.06,1.27-.08Z"/><path class="cls-1" d="m161.2,12.37c.4-.23.63-.36.91-.52q0,.49-.91.52Z"/><path class="cls-1" d="m55.74,13.15q-.13-.38.64-.26c-.18.07-.41.17-.64.26Z"/><path class="cls-1" d="m232.84,26.16c.15-.63.29-.91.83-.86.03.51-.26.65-.83.86Z"/><path class="cls-1" d="m100.52,30.87c-.36-.39-.57-.62-.82-.9q.46.14.82.9Z"/><path class="cls-1" d="m69.39,12.84q-.76.21-.75-.15c.25.05.45.09.75.15Z"/><path class="cls-1" d="m118.52,21.15c-.05.72-.38.89-.89.87.24-.24.49-.48.89-.87Z"/><path class="cls-1" d="m293.91,8.47c-.18-.23-.32-.41-.56-.71.38-.05.61-.09,1.03-.15-.21.38-.33.6-.47.85Z"/><path class="cls-1" d="m268.25,12.97c-.58-.75-.58-.84,0-1.1v1.1Z"/><path class="cls-1" d="m85.92,13.56c-.05.04-5.91-.98-.33-.62.13.24.21.4.33.62Z"/><path class="cls-1" d="m113.63,19.85c-.08.53-.18.76-.64.63-.06-.45.17-.53.64-.63Z"/><path class="cls-1" d="m232.48,12.89v-1.04c.14.03.35.02.39.1.19.39-.02.67-.39.94Z"/><path class="cls-1" d="m282.77,13.57c-.04-.12-.26-.47-.18-.57.3-.36.42.13.87.23-.32.15-.49.23-.7.33Z"/><path class="cls-1" d="m292.42,11.25c.18.14.36.21.38.31.07.28-.14.34-.36.3-.13-.03-.25-.12-.37-.19.1-.12.2-.24.35-.42Z"/><path class="cls-1" d="m73.49,19.62c.74.24-.82-.24-.61-.11.26.05.4.07.61.11Z"/><path class="cls-1" d="m54.88,17.53q-.63-.22.06-.34c.54.04.05.21-.06.34Z"/><path class="cls-1" d="m294.21,9.37c.21.44.09.74-.3,1.01-.2-.41-.11-.72.3-1.01Z"/><path class="cls-1" d="m279.53,17.93c-.16-.16-.37-.37-.55-.55h.55v.55Z"/><path class="cls-1" d="m270.01,17.35c.12.3.24.6.36.89-.06.05-.12.09-.19.14-.12-.11-.28-.21-.34-.34-.07-.17-.04-.37-.06-.56.07-.04.15-.08.22-.13Z"/><path class="cls-1" d="m167.85,14.24c.26.08.52.16.82.26-.62.19-.81.02-.82-.26Z"/><path class="cls-1" d="m239.78,19.79c.25-.25.36-.42.52-.48.08-.03.24.11.36.17-.08.1-.14.26-.25.3-.13.05-.3.01-.63.01Z"/><path class="cls-1" d="m26.81,28.41q-.27.61-1,.32c.17-.17.5-.22,1-.32Z"/><path class="cls-1" d="m245.27,13.21c-.15-.3-.26-.52-.37-.73.1-.04.24-.14.31-.11.34.17.21.44.06.84Z"/><path class="cls-1" d="m306.09,13.28c-.31.15-.52.25-.73.35-.04-.1-.14-.24-.11-.31.18-.32.44-.21.84-.04Z"/><path class="cls-1" d="m220.32,1.2c-.3.15-.52.26-.73.37-.04-.1-.14-.24-.11-.31.17-.34.44-.21.84-.06Z"/><path class="cls-1" d="m321.11,7.85c.25-.22.35-.35.49-.42.09-.05.22-.03.32,0,.04.01.1.16.08.19-.08.1-.19.2-.3.25-.1.04-.23,0-.59-.02Z"/><path class="cls-1" d="m317.29,7.05c-.21.12-.43.25-.64.37-.04-.05-.09-.1-.14-.16.08-.09.16-.19.26-.25.12-.07.25-.11.38-.16.05.07.09.13.14.2Z"/><path class="cls-1" d="m252.73,7.07c-.37-.08-.71-.19-.5-.77.2.31.35.54.5.77Z"/><path class="cls-1" d="m219.03,25.41c.47-.41.47.59.26.49-.09-.16-.18-.33-.26-.49Z"/><path class="cls-1" d="m121.03,23.71c.27.42-.09.48-.24.67-.27-.43.09-.47.24-.67Z"/><path class="cls-1" d="m77.29,13.19c-.17.07-.1.26-.68.09.17-.07.1-.26.68-.09Z"/><path class="cls-1" d="m39.52,9.15c.2-.27,1.3-.32.96-.13-.23.03-.47.06-.96.13Z"/><path class="cls-1" d="m42.51,25.39c-.25.01-.46.03-.67.04q.63-.23.67-.04Z"/><path class="cls-1" d="m114.23,19.39c.34-.04.41.12.28.56-.12-.24-.2-.41-.28-.56Z"/><path class="cls-1" d="m244.97,14.65c.45-.12.5.08.31.58-.13-.24-.22-.4-.31-.58Z"/><path class="cls-1" d="m186.28,20.25c.29.04.51.06.73.09-.04.14-.02.37-.73-.09Z"/><path class="cls-1" d="m36.18,24.77c-.27.22,1.08-.06.94-.38-.46.19-.69.28-.94.38Z"/><path class="cls-1" d="m109.46,16.87c.88,5.18.09,5-.18-.02.06,0,.12.02.18.02Z"/><path class="cls-1" d="m247.52,14.95c-.05.1-.13.27-.28.61q-.03-.69.28-.61Z"/><path class="cls-1" d="m219.87,21.62c-.37.38.63.38.3.16-.03.02-.12-.06-.3-.16Z"/><path class="cls-1" d="m330.74,9.06h-.5v-.12h.5v.12Z"/><path class="cls-1" d="m252.97,7.97c-.04-.26-.06-.43-.08-.59.08.1.18.18.24.29.02.03-.06.12-.16.3Z"/><path class="cls-1" d="m302.96,20.96c-.03.05-.06.11-.09.16-.03-.03-.08-.06-.08-.08.01-.06.05-.11.08-.17.03.03.06.06.09.09Z"/><path class="cls-1" d="m252.89,7.38c-.08-.08-.17-.17-.25-.25.08.08.17.17.25.25Z"/><path class="cls-1" d="m301.8,3.5s-.1.08-.15.12c-.02-.05-.06-.14-.04-.15.05-.04.12-.05.19-.08,0,.04,0,.07,0,.11Z"/><path class="cls-1" d="m31.28,16.16c-2.91-.06-5.6-.36-6.21-.6s.85-.43,6.31-.33c-.03.29-.07.61-.1.94Z"/><path class="cls-1" d="m334.51.6c-.25.04-.24.38-.55.18-.4-.26-2.7,2.9-2.46,2.22-.31,4.48,1.97.11,3.01-2.4Z"/><path class="cls-1" d="m348,.5h-1.77c-.1.07-.21.13-.34.15-.28.03-.57,0-.7,0-.03-.06-.06-.1-.09-.15h-5.55c-.78.61-1.74.62-2.62.9-.21.07-.42.12-.65.18-.12-.12-.27-.27-.37-.37-.48.36-.93.77-1.44,1.07-.54.31-.94.06-.98-.55-.01-.21-.09-.48.01-.61.19-.24.25-.43.23-.61h-.56c.06.13.08.26-.03.41-.21.29-.15.76-.24,1.25-1-.1-2.05.18-3.06-.24q-.18,1.18-1.45,2.45c-.95.17-1.72-.26-2.42-.88-.22-.19-.41-.41-.62-.61-.63-.62-.64-.62-1.45-.23-.35.17-.73.29-1.02.52-.26.22-.43.56-.63.85-.24.36-.65.51-.96.34-.63-.33-1.27-.24-1.9-.21-.6.03-1.08-.19-1.6-.55-.63.36-1.3.88-2.03.11.5-.76.5-.75,1.44-.58.69.13,1.31-.29,1.99-.31.1,0,.2-.12.3-.18.37-.24.63.56,1.09.09.22-.22.64-.25.97-.34.38-.1.76-.16,1.14-.26.15-.04.27-.15.41-.22.75-.34,1.54-.35,2.44-.13.37.09.8.1,1.17,0,.92-.27,1.82-.61,2.71-.93.03-.1.07-.18.07-.25,0-.04,0-.08,0-.12h-6.49c-.34.25-.71.4-1.17.42-.38.01-.8.08-1.13.26-.24.13-.36.48-.57.79-.14-.34-.37-.63-.35-.9.01-.21,0-.39-.04-.57h-10.16c-.37.65-.76,1.28-1.17,1.89-.23.34-.61.35-.93.06-.41-.37-.73-.83-1.38-.92-.2-.03-.45-.12-.68-.13-.36-.01-.73,0-1.27,0,.26-.52.53-.77.88-.9h-2.75c-.03.58-.84.47-1.02,1,.14.06.33.15.56.24.12-.12.41-.39.63-.6.81.26,1.56.45,1.57,1.48-.18.08-.4.27-.6.26-.94-.05-1.8.17-2.61.64.03.91.08,1.01.78,1.27.18.07.39.1.58.1,1.13-.04,2.26,0,3.36.36-.39.26-.83.32-1.26.44-.42.12-.74.61-1.12.95-.18,0-.4.03-.6,0-.18-.04-.35-.16-.52-.24-.14-.07-.28-.14-.42-.22-.02.25.05.38.16.46.59.47,1.3.83,1.77,1.4.89,1.07,1.18,1.25,2.43.85.26-.08.5-.2.75-.29.75-.27,1.49-.72,2.3-.11v.57c-.56.12-1.15.14-1.61.4-.33.18-.62.19-.93.18-.35-.01-.75.17-1.03-.21-.34.16-.68.33-1.03.46-.09.03-.22-.05-.33-.08-.15-.05-.29-.14-.43-.15-.58-.05-.85.15-.84.74.02.76-.31,1.2-.99,1.52-.42.2-.76.6-1.11.94-.6.59-.58.83.05,1.38.38.33.75.98.78,1.4.01.24,0,.47,0,.8.84.07,1.59.16,2.34.19.35.01.69.08,1.05-.2.17-.13.65.18.99.2.75.04,1.49.01,2.43.01.26-.26.6-.6.95-.95.35.27.91.19,1.31.62.3.32.84.06,1.16-.42.37-.55.84-.73,1.26-.31.4.4.86.41,1.25.29,1-.3,2-.48,3.04-.49.74,0,1.17-.42,1.41-1.25-.77.47-1.58.53-2.41.52-.51-.01-1.06-.14-1.52.24-.46-.33-.8.46-1.34.11-.4-.26-.98-.15-1.43-.46-.54-.38-1.11-.7-1.69-1.05.41-.56.13-1.08-.24-1.59-.47-.15-.69.2-.93.47-.44.5-.99.77-1.62.81-.2,1.06.83,1.9.4,2.88-.29.14-.53.25-.76.36-.44-.45-.85-.86-1.3-1.31h-1.06q.02-.67,1.35-2h1.07v-.45c-.39-.56-.89-.49-1.37-.52-.79-.06-1.47-.36-1.83-1.14.34.02.25-.83.8-.4.64-.36,1.33-.17,1.99-.18.77,0,1.48-.14,2.22-.38.66-.21,1.42-.58,2.07-.32.42.17.45-.07.64-.18-.27-.29-.67-.52-.55-.81.51-.62,1.04-.55,1.56-.57,1.84-.07,3.67-.15,5.51-.25.8-.04,1.43-.6,1.44-1.41,0-.51.18-.91.41-1.33.38,0,.75-.01,1.12,0,.54.02.72.19.73.73.01.82,0,1.64,0,2.37-.57.47-1.14.41-1.7.39-.62-.02-1.14.13-1.63.76.66,0,1.27-.17,1.69.04.62.32,1.2.14,1.79.18.34.02.59-.21.59-.61,0-.21.02-.42,0-.62-.07-.47.14-.85.37-1.22.26-.42.83-.21,1.15-.52.96.12,1.94-.22,2.9.22.34.15.9.15,1.2-.04.37-.23.71-.12,1.05-.19.38-.07.76-.18,1.15-.24.14-.02.29.04.66.11-.5.41-.62.98-1.26.87-.64-.1-.96.27-1.27.78.26.21.34.74.84.31.08-.07.23-.1.33-.09.83.11,1.57-.22,2.26-.56.49-.24.93-.28,1.36-.04.48.27.62.73.43,1.33-.53.44-1.11.91-1.71,1.39.32.4.59.74.86,1.08.28.36.56.73.88,1.13.55-.44.92-.85,1.05-1.5.12-.57.29-1.13.78-1.55.36-.31.37-.75.19-1.32-.07-.22-.18-.43-.24-.65-.1-.38.09-.75.39-.8,1.16-.16,1.93-1,2.86-1.53.44-.25.87-.56,1.02-1.17-.87-.13-1.6-.12-2.33.42-.63.47-.83.38-1.48-.15.44-.28.9-.53,1.3-.84.42-.32.77-.73,1.19-1.06.24-.19.53-.31.82-.42.87-.34,1.81-.41,2.69-.72.45-.16,1.07-.18,1.5.23.32.31.56.69.87,1.08-1.19.4-1.87,1.27-2.6,2.07-.2.22-.23.57-.39.83-.18.28-.2.66-.65.78-.23.06-.34.5-.57.68-.42.33-.46.73-.42.92.48.73,1.13.43,1.53.65.63.35,1.11.18,1.48-.2.39-.39.88-.48,1.22-.31.58.3,1.19.1,1.79.29-.03.22.02.48-.09.6-.36.39-.74.77-1.18,1.06-.56.38-.99.82-1.19,1.51.71,0,1.42.15,2.02-.04.77-.24,1.54-.5,2.3-.76.05-.02.1-.04.15-.06V.5Zm-37.17,4.77c-.75-.21-1.79-.08-2.32-1.15.18-.21.41-.48.56-.66,1.24-.3,2.02.13,2.47,1.3-.22.15-.48.34-.72.51Zm1.93-3.24c.91-.62,1.91-.33,2.86-.35.23,0,.47.3.82.55-1.37.42-2.56.75-3.69-.19Zm34.18,3.3c-.09.22-.31.45-.53.54-.3.13-.59-.04-1.28-.54.22-.12.42-.21.59-.33.16-.12.28-.27.48-.47.17.15.28.35.39.34.39-.03.45.22.35.45Z"/><path class="cls-1" d="m301.8.09c.04.12.15.24.26.31.34.19.68.48,1.06.06.37.25.61-.08.92-.17-.5-.53-19.07,9.54-19.26,8.72h-1.51c.18.54,18.34-9.43,18.53-8.91Z"/><path class="cls-1" d="m30.62,19.98s0-.03,0-.04c-.05.01-.1.03-.15.04.05,0,.1,0,.15,0Z"/><path class="cls-1" d="m76.34,14.94c.36.35.24.23,0,0h0Z"/><path class="cls-1" d="m31.63.62c.04.1.08.19.12.27.66-.08,1.08-.18,1.25-.28-.46,0-.91,0-1.36,0Z"/><path class="cls-1" d="m139.28,18.96c-.25.03-.51.04-.78.04.27,0,.53,0,.78-.04Z"/><path class="cls-1" d="m147.03,15.48c.12-.04.24-.09.36-.13-.12.04-.24.09-.36.13Z"/><path class="cls-1" d="m147.38,15.35c.36-.13.73-.25,1.12-.35-.3,0-.69.18-1.12.35Z"/><path class="cls-1" d="m158.5,13c.47-.47.49-.72.22-.88-.88.26-1.77.5-2.66.69.9.54,1.67.96,2.44.19Z"/><path class="cls-1" d="m286.98,1.91c1.37-.32,2.56-1.06,3.83-1.61.3-.13.63-.25.95-.3H34.85c.17.54.37,1,.65,1-.96.96-2.83,1.91-3.75-.11-.69.08-1.64.14-2.87.14,0-.36,0-.7,0-1.04h-2.74c.42.42.61,1,1.37,1-1,0-2,0-2.73-.95.03-.01.06-.03.08-.05h-9.77c0,.11,0,.23,0,.38-.39-.04-.74.17-1.06-.17-.07-.07-.14-.14-.2-.22h-5.82c.11.13.26.23.41.29.63.25.86.77,1.26,1.39-.62.18-1.09.38-1.58.46-.59.09-1.19-.08-1.77.24-.16.08-.49-.15-.88-.29.38-.35.65-.6.95-.88-.23-.7-1.11-.68-1.56-1.19h-2.24c-.08.16-.29.28-.65.4-.41.14-.8.29-1.26.26-.27-.02-.47-.09-.68-.25v2.74c.32.06.76-.06,1.1-.16.22-.06.33-.1.53.04.21.16.48.24.71.31.6-.73,1.35-1.12,2.18-1.4.51.47.64,1.26,1.36,1.64.48.25.11.81.24,1.23-.9.32-1.23-.65-1.96-.71-.61-.06-1.18-.5-1.81-.75.11.51-.16,1,.23,1.47.13.15.13.6-.15.9-.48.51-.87.6-1.46.15-.31-.23-.62-.46-.96-.63v3.82c.33.11.67.19,1,.04.59-.27,1.11-.27,1.7,0,.36.16.79.13,1.1-.27.3-.38.7-.6,1.21-.7.45-.09.81-.35,1.32,0,.25.17.83.18,1.08,0,.51-.36,1.03-.15,1.54-.21q.55.12.29.99c-.4-.11-.79-.13-1.06-.32-.24-.17-.31.02-.46.03-.51.06-.58.48-.78.8-.21.34-.12.58.13.87.1.11.02.38.02.61-1.37,0-2.65.03-3.93-.02-.48-.02-.94.09-1.22.35-.62.57-1.27.47-1.94.38v1.04c.28.03.52.13.63.55-.21.15-.41.29-.63.44v1.33c.44-.14.86,0,1.25-.07.22.46.39.82.55,1.16-.26.35-.47.44-.83.13-.11-.09-.54.22-.83.34,1.65-.07,3.23.5,4.87.37,5.49-2.86,10.49,1.14,15.49,1.14-2,2-4,1-6,1,1,0,3,1,4,1-1,2-5,0-6,3,3-1.5,6.5-1.25,10.15-1.27,2.41-.36,5.11-1.04,7.82-1.75-1.88-.09-3.87.86-4.94-1,2.1.91,2-2,4.05-2.04q-1,1-.03,1.84c.67.23,1.15.58,1.07,1.16,2.7-.71,5.41-1.45,7.88-1.94.55-.55,1.1-1.41.98-1.9,2.3.19,4.46.45,6.02-1.1-1,2-4,1-5,3,3-2,7,0,10-3h-3c19-2,38-5,56,4-1-2-2-4-5-5,0,2,3,1,3,3-4,0-7-2-10-4,6,0,17-4,18,6,2-1-1-3,0-4,3,2,7-2,10,2h-3c5,3,10-5,13-1,2,1-3,4-2,7,2-3,4-5,7-7.25,3-1.5,6.5-1.75,10,.25-3-1-5.25,0-7.38,1.25s-4.12,2.75-6.64,2.77c5.02,2.98,7.02-2.02,10.02-3.02,0,1.47-.54,1.85-1.22,1.96,3.01-.31,4.9-2.32,7.75-3.47-.91.31-1.91.37-2.53-1.48,3-1,7,2,10,0-1,0-2,0-3-1,1.53.25,3.05.12,4.56-.19-.27-.16-.55-.34-.85-.5.67-.32,1.16-.76,1.8-.54.78.12,1.42.18,1.71.35,3.47-1.03,6.8-2.31,9.78-1.12,2,1-4-1-4,2,6-3,12-3,18-2-2,0,0,1-1,2,3,1,6-3,9-2-1,0-2,1-3,1,2,0,3,1,5,1-1,0-1,2-1,2,2,0,3,0,5,1-1,0-1,1-2,1,3,0,6-2,8-4-1,0-2,0-3-1,2-1,4,3,6,0-1,0-3,0-3-2,2,1,5-2,6,2,0,1-1,1-2,2,4-2,8,2,11.8-.8.55-.23,1.04-.55,1.55-.78.51-.22.28-.46.32-.72-.73-.16-1.47-.54-1.65-.89-.14-.27-.13-.53.13-.76.17-.15.28-.22.52-.09.54.3,1.01.24,1.54-.18.78-.63.96-.56,1.7.2.04.05.02.15.03.18-.15.46-.77.55-.74,1.17.43.11.77.09.87-.47.13.46.25.91.38,1.35-.46.44-.18,1.01-.25,1.52-.05.42-.22.58-.7.65-.47.06-.95.12-1.39.26-.25.08-.47.31-.41.67.05.32.22.54.54.55,1.08.02,2.17.05,3.24-.02.44-.03.87-.29,1.29-.49.17-.08.36-.25.41-.42.13-.41.22-.84.25-1.26.04-.57.01-1.15.01-1.81.51-.22,1-.43,1.54-.66v-1.76c.66-.61,1.4-.72,2.16-.46.61.21,1.14.59,1.08,1.52.21-.27.31-.4.42-.54-.43-.32-.15-.57.11-.77.26-.2.26-.56.16-.66-.4-.4-.21-.86-.22-1.29-.01-.45.54-.85.81-.57.39.39.85.09,1.25.36.32.22.95-.05,1.29.16.45.28.88.19,1.3.17.57-.03.83.33,1.06.7.18.28.23.67.25,1.01,0,.21-.16.42-.31.79,1.16.41,2.29.63,3.57.48,0-.37-.02-.74,0-1.1.02-.37.22-.6.61-.6.78,0,1.56,0,2.33,0,.26.97-.8,1.11-.96,1.83.74.84,1.59,1.48,2.84,1.42.44-.02.79.17.97.64.09.25.33.45.53.71.26-.48.19-.73-.08-1-.28-.28-.66-.59-.71-.94-.1-.63-.41-1.17-.56-1.89.99-.2,1.98-.4,3-.6v-.67c-.25,0-.55-.09-.72.02-.65.41-1.35.2-2.03.22-.44.01-1.02-.17-1.1-.54-.11-.51-1.07-.73-.54-1.39,1.59-.21,3.05-.04,4.33.98.45-.39.84-.74,1.24-1.06.31-.25.61-.52.96-.69.2-.1.49-.02.74-.02.29,0,.58,0,.87,0,.25,0,.5-.02.75,0,.25.03.49.1.73.15.09-.09.18-.18.27-.27-.43-.35-.93-.65-1.27-1.07-.3-.38-.48-.88-.61-1.36-.06-.19.15-.46.23-.68,1.48-.02,1.48,0,2.56.48.59.26,1.22.45,1.85.67.04.68-.88.48-1,1.03.02.08.02.16.06.23.31.54.79,1.06.19,1.71.03.56-.13,1.14.22,1.56-.23.27-.44.51-.68.78-.48.11-1.12-.24-1.54.38,0,.45-.02.91,0,1.37.03.45-.17.71-.6.74-.69.06-.97.52-1.17,1.08.89.77,1.68.73,2.25-.14.26-.4.68-.5,1.06-.68.4.54,1.04.14,1.57.44.85.48.92.35,1.84-.03.21-.09.46-.1.68-.16.3-.07.6-.15.76-.19.89.42,1.68.83,2.49,1.18.36.16.78-.1.8-.38.06-.79.6-1.05,1.16-1.4.27-.17.66-.38.62-.86-.49-.09-1.05-.39-1.43-.23-.89.36-1.9.39-2.69,1.08-.32.28-.88.57-1.42.15-.14-.11-.38-.06-.58-.09-.67-.11-1.33-.22-2.03-.33-.17-.15-.38-.35-.54-.49-.19-.74.22-1.46-.27-2.11-.05-.06.2-.43.37-.54.15-.09.4-.02.61-.02.75,0,1.5-.04,2.24.01.71.05,1.42.2,2.19.32.29.29.65.64,1,1,.24.25.53.27.76.06.65-.6,1.49-.83,2.24-1.22.58-.3.86-.71.76-1.36q-.61-.12-.98-.59c.14-.19.19-.32.55-.34.87-.05,1.73-.37,2.62-.42.05-.33.63-.03.58-.49-.02-.15-.03-.31-.03-.32-1.59-.54-3.17-.73-4.64-1.83,1.37-.14,2.54-.02,3.71-.26,1.12-.23,2.25.26,3.42.34.51-.96.58-.99,1.59-.7.18.05.44.12.58.04.55-.35,1.22-.3,1.77-.54,1.11-.49,2.13.07,3.19.1.13,0,.38.3.36.44-.05.64.5.73.83.76.74.05,1.23.39,1.68.92-1.15,1.14-1.68,1.36-3.35,1.36q-.83.83-.78,1.41c.5-.06,1.02-.21,1.5-.13.23.04.51.16.77.23.36.1.77.27,1.01.53.17.19.09.59.13.94-.51.09-.93.15-1.35.26-.23.06-.45.2-.81.37,1.24.25,2.04.88,2.8,1.65,1.27-.13,2.54-.11,3.61.78.15-.13.25-.2.32-.29.07-.09.15-.21.14-.31-.07-1.11.44-1.93,1.28-2.59.44-.35.59-.75.43-1.28-.62-.11-1.25-.2-1.86-.34-.59-.13-1.26-.1-1.66-.76.49-.56.89-1.07,1.72-1.04.37.01.76-.33,1.05-.47-.08-.55-.19-.97-.19-1.39,0-.19.21-.51.38-.55ZM1.33,2.62c-.69,0-1-.42-1.26-1.07.15-.14.28-.25.45-.41.23.1.51.22.81.34v1.14Zm1.61,3.05q.82.25.83.67-.82-.25-.83-.67Zm.84,10.66c-.5.1-.59-.39-.89-.56.21-.77-.51-.63-.85-.82-.58-.33-.6-.29-.72-1.13.69-.1,1.3-.19,1.87-.27.43.66-.19,1.13-.1,1.67.49.21.96.43.68,1.11ZM73.21,7.44c.76-.14,2.14.52,3.15.5-1.01.02-3.06.09-4.68-.18.21-.48.97-.35,1.53-.32Zm-11.36.15c.06-.19.11-.35.18-.58-.64-.24,6.32-.11-.18.58Zm-30.18-2.56c5.83-.03,5.84.97-.56.54.21-.21.37-.4.56-.54Zm-2.18,3.77c-.42.26-.85.08-1.25.15q.91-.56,1.25-.15Zm.37,2.51c-.53.83-1.37.42-2.13.6.59-1.12.82-1.18,2.13-.6Zm-2.69-2.44c-.53.76-1.36.67-2.24.72,0-.34-.01-.59-.02-.96.76.08,1.48.16,2.26.24Zm-6.76-6.87q.08.99-1.34.52c.33-.32.55-.82,1.34-.52Zm-6.33.28c.09-.36,1.19-.56,1.66-.34q-.25,1.06-1.57.91c-.09-.17-.14-.4-.09-.57Zm-5.6,3.06c-.29.36-.27.81-.69,1.06-.39.24-.76.22-1.15.22-.33,0-.5-.21-.57-.52-.06-.28.06-.51.28-.62.3-.15.64-.27.97-.35.54-.13,1.14.22,1.63-.25.02-.02.1-.02.12,0,.65.55,1.48.41,2.07,1.29-.76-.71-1.84-.33-2.67-.83Zm1,4.66c2,0,0-3,1.86-2.36.28-.05.58-.01.86-.01,1.28,3.37-1.72,2.37-2.72,2.37Zm6.45.08c.21-.05.35-.33.55-.47,0,.71,1.56.02,2.42-.3-.1-.1-.21-.17-.31-.28.24-.73,1.05-.56,1.49-.41,1.4.38,3.4.38,4.4.38-1.79,1.79-3.59,1.97-5.3.56-.29.28-.82.73-1.7,1.44h-4c1,0,1-1,2.45-.92Zm.07,6.71c-.52.21-2.52-.79-1.52-1.79,1,0,3-2,3,1q-1,0-.63.78c-.42,0-.83.06-.84,0Zm8,3.73c-6.52-.52-.51-.53-.5-1.45q.51.74.5,1.45Zm21.45-6.5s-.01,0-.02,0c-1.85.29-3.7.56-5.55.84.49.11.98.26,1.46.48-.34.08-.58.18-.79.18-1.07-1-2.64,1.15-4.13-.16-4.31.61-8.62,1.18-12.94,1.63.46,0,.71.22.95.45-2.65-1.01-5.3.43-7.95-.45,3-1,5-3,8.14-3.11.19.04.42-.02.6.04,2.57-.48,5.18-.66,7.92-.77,3.6.32,7.14.08,10.66-.46-.27-.28-.5-.49-.61-.48q.7-.35,2.03-.4c.07.24.11.43.16.62,5.07-.9,10.09-2.32,15.1-3.44-1.84-.61-3.31-.85-4.86-.94.95-.39,1.91-1.11,2.86-2.06,6,7,15,2,22,3-11.68,1.23-23.35,3.21-35.03,5.02Zm13.89-.79c-.53.45-2.99.86-4.62.42,1.24-.21,3.68-.6,4.54-.87.36.16.4.32.08.45Zm3.37-.78c-.04.15-.07.31-.12.5-5.33-1.91,3.76.34.12-.5Zm8.33-.93c1.07-.07,2.12-.13,3.26-.18.56.03.81.24.98.54-1.08-.54-1.89,1.43-4.24-.36Zm5.2-.24c1.99-.02,4.87.04,6.81.23.47-.09,1.27.08,1.99.54.09.18,1.32.96,1.32.96-2.67-.24-6.39-.43-10.13-1.72Zm120.34,1.32c-.05-.13-.04-.33.05-.4.85-1.2,1.85-4.2,2.85-1.2,0,1-1,3-2.9,1.6Zm14.5.4c-.49-.38-.87-.76-.58-1.48,2.98,1.49,3.98-2.51,6.98-1.51-1,3-4,3-6.4,3Zm28.13-4.73c-.28-.26-.51-.42-.68-.63-.34-.45-.08-.99.5-.99.29,0,.58.15,1.05.27-.37.57-.59.91-.87,1.35Zm7.24-3.69c-.22-.45,0-.72.55-1.11.19.41.33.71.51,1.11h-1.06Zm10.91-.28q3.16-1.66,5.15-1.65c.42.53.65,1,.59,1.61-.04.39-.25.64-.59.61-.59-.04-1.18.15-1.79-.17-.39-.21-1.07-.23-1.44-.02-.83.48-1.34.05-1.93-.37Zm7.31,1.54c.3.31.21.67.07,1-.05.13-.27.3-.36.28-.59-.16-1.07.29-1.64.27-1.08-.03-2.02-.47-2.96-.94-.18-.09-.33-.21-.5-.32.55-.07.99-.58,1.52-.25.29.18.55-.36.93-.03.19.16.65.09.96.02.33-.07.64-.26.94-.41.49-.26.74.1,1.02.38Z"/><path class="cls-1" d="m292.32,0c.58.09,1.19.21,1.71.44.51.23,1.04.06,1.5.3.76.39,8.34,4.58,8.97,4.26,4.11-2.06,16.06.05,27-1,6.64-.64,12.9-2.6,16.59-4h-55.78Z"/><path class="cls-1" d="m45.4,12.44c-.52.09-1.05.18-1.57.26.57.58,1.32,1.46,1.63,1.33,0,0,.01,0,.02,0,.17-.1.18-.55-.07-1.59Z"/><path class="cls-1" d="m35.9,14.73c.18.27.36.48.54.64,1.15-.16,2.31-.33,3.46-.5-1.57-.35-3.13-.2-4-.13Z"/><path class="cls-1" d="m33.36,0h-2.53c1.8.13,2.53.38,2.17.61.07,0,.15,0,.22,0,.05-.22.1-.42.15-.61Z"/><path class="cls-1" d="m18.92,9.31c.09.09.19.18.28.25.52-.5.25-.45-.28-.25Z"/></g></svg>