<svg xmlns="http://www.w3.org/2000/svg" viewBox="0 0 504.5 256.91"><defs><style>.cls-1{fill:#fff;}</style></defs><g id="Layer_2" data-name="Layer 2"><g id="Capa_1" data-name="Capa 1"><path class="cls-1" d="M123.15,125.19h8.36c7.46,0,10.25,3.92,10.25,10.44v2.17c0,6.75-2,8.81-4.45,9.71,2.6.82,5.43,3.11,5.43,9.64v3.54c0,8.37-2.89,12.53-11.07,12.53h-8.52Zm8.14,20.32c4.29,0,5.59-1.74,5.59-7.33V136c0-4.35-1.6-6.5-5.72-6.5h-3v16Zm-3.16,23.4h3.08c5.17,0,6.45-2.47,6.45-8.31v-3.32c0-5.24-1.83-7.49-6.46-7.49h-3.07Z"/><path class="cls-1" d="M164,150H153.25v18.56h12.23l-.69,4.7H148.14v-48h16.49v4.73H153.25v15.34H164Z"/><path class="cls-1" d="M173.46,159.69v2.79c0,4.52,1.56,6.94,4.93,6.94s4.79-2.49,4.79-7.75c0-5.62-1.23-7.81-6.29-11.75s-7.75-6.44-7.75-13.52c0-6.09,1.83-11.92,9.36-11.88,7.15,0,9,4.79,9,10.89v2.23h-5.08v-2.09c0-4-.77-6.56-4.06-6.56s-4.15,2.89-4.15,6.65c0,4.46.89,6.16,5.3,9.49,6.67,5,8.78,7.85,8.78,15.83,0,6.75-1.93,12.9-10,12.9-7.75,0-9.94-5.08-9.94-11.41v-2.76Z"/><path class="cls-1" d="M197.91,129.92h-7.77v-4.73h20.61v4.73H203v43.3h-5.11Z"/><path class="cls-1" d="M242.24,159.44v1.63c0,6.1-1.1,12.79-9.78,12.79-8.32,0-9.74-5.9-9.74-13V136.48c0-7.69,3.3-11.93,9.8-11.93,8.06,0,9.51,5.72,9.51,12v1.88h-5.19v-2.26c0-3.8-.6-7-4.39-7-3.61,0-4.52,2.85-4.52,7.09v24.94c0,4.81,1.06,8,4.67,8S237,166,237,161.45v-2Z"/><path class="cls-1" d="M267,173.22h-4.05c-.14-.79-.29-3.07-.32-4.16-1.21,3.56-3.93,4.8-7.06,4.8-6.65,0-8.83-4.9-8.83-12.58v-24c0-7.88,3.18-12.7,10.27-12.7,8.37,0,9.9,5.91,9.9,12v1.22h-5.11v-1.34c0-3.36-.4-7.24-4.83-7.24-3.34,0-5,2.12-5,7.57v24.76c0,4.73,1.23,7.75,4.74,7.75,4.4,0,5.15-4.07,5.15-10.2v-7.65h-5.33V147H267Z"/><path class="cls-1" d="M278.6,125.19v48h-5.12v-48Z"/><path class="cls-1" d="M293,173.22v-.7c0-7.39,3.4-13.07,8.95-21.24,3.8-5.55,4.85-7.72,4.85-12.93,0-5.6-.86-8.07-4.2-8.07-3.18,0-4.36,2.48-4.36,6.55V139h-4.78v-2.34c0-5.11,1.57-10.74,9.38-10.74,7.37,0,9.15,5.28,9.15,12.17,0,7.32-2,10.16-5.73,15.45-4.31,6.23-7.21,11.2-7.57,15.22H313l-.73,4.47Z"/><path class="cls-1" d="M336.47,137.78v23.93c0,8-3,12.08-10,12.08-6.39,0-9.66-4-9.66-12V138.08c0-8.81,4.13-12.17,10-12.17S336.47,129.21,336.47,137.78Zm-14.59-.15v24.53c0,4.65,1.45,6.88,4.79,6.88,3,0,4.68-1.78,4.68-7.06V137.57c0-5-1.81-6.91-4.72-6.91S321.88,132.31,321.88,137.63Z"/><path class="cls-1" d="M340.6,173.22v-.7c0-7.39,3.39-13.07,8.94-21.24,3.81-5.55,4.85-7.72,4.85-12.93,0-5.6-.86-8.07-4.2-8.07-3.18,0-4.35,2.48-4.35,6.55V139h-4.78v-2.34c0-5.11,1.56-10.74,9.37-10.74,7.37,0,9.15,5.28,9.15,12.17,0,7.32-2,10.16-5.72,15.45-4.32,6.23-7.21,11.2-7.57,15.22H360.6l-.72,4.47Z"/><path class="cls-1" d="M384.07,137.78v23.93c0,8-3.05,12.08-10,12.08-6.4,0-9.67-4-9.67-12V138.08c0-8.81,4.13-12.17,10-12.17S384.07,129.21,384.07,137.78Zm-14.59-.15v24.53c0,4.65,1.44,6.88,4.79,6.88,3,0,4.68-1.78,4.68-7.06V137.57c0-5-1.81-6.91-4.72-6.91S369.48,132.31,369.48,137.63Z"/><path class="cls-1" d="M177.39,87.33v18.46h-2.82V67.38h5.68c5.72,0,8.13,2.59,8.13,8.55v2c0,4.75-1.43,7.32-3.91,8.14,2.57.8,3.61,2.79,3.61,7.88,0,3.31-.06,9.39.39,11.88h-2.78c-.47-2.45-.4-9-.4-11.63,0-5.17-.77-6.83-4.83-6.83Zm0-2.49h3.3c4,0,4.83-2.75,4.83-6.8v-2c0-3.88-1.2-6.19-5.38-6.19h-2.75Z"/><path class="cls-1" d="M196,67.38V97.67c0,3.43,1.25,6,4.54,6s4.51-2.21,4.51-5.93V67.38h2.87V97.56c0,5.85-2.61,8.71-7.45,8.71s-7.28-2.77-7.28-8.57V67.38Z"/><path class="cls-1" d="M213.78,105.79V67.38h3.5c2.44,8.28,8.31,29.22,9.09,33.12h.11c-.2-5.47-.29-10.87-.29-17.1v-16h2.73v38.41h-3.41c-2.62-9-8.39-30.21-9.35-34.26h-.06c.24,4.61.42,11.39.42,18.33v15.93Z"/><path class="cls-1" d="M234.93,105.79V67.38h3.51c2.44,8.28,8.31,29.22,9.09,33.12h.1c-.19-5.47-.29-10.87-.29-17.1v-16h2.74v38.41h-3.41c-2.62-9-8.4-30.21-9.36-34.26h-.06c.24,4.61.43,11.39.43,18.33v15.93Z"/><path class="cls-1" d="M267.63,86.47H258.9V103.2h9.81l-.42,2.59H256.08V67.38h12.06V70H258.9V83.87h8.73Z"/><path class="cls-1" d="M275.06,87.33v18.46h-2.82V67.38h5.68c5.72,0,8.14,2.59,8.14,8.55v2c0,4.75-1.43,7.32-3.91,8.14,2.57.8,3.6,2.79,3.6,7.88,0,3.31-.06,9.39.39,11.88h-2.78c-.47-2.45-.4-9-.4-11.63,0-5.17-.77-6.83-4.83-6.83Zm0-2.49h3.31c4,0,4.82-2.75,4.82-6.8v-2c0-3.88-1.19-6.19-5.38-6.19h-2.75Z"/><path class="cls-1" d="M301.61,67.38V97.67c0,3.43,1.25,6,4.54,6s4.51-2.21,4.51-5.93V67.38h2.87V97.56c0,5.85-2.62,8.71-7.45,8.71s-7.29-2.77-7.29-8.57V67.38Z"/><path class="cls-1" d="M319.38,67.38h6c5.44,0,7.88,2.81,7.88,8.61v2.38c0,5.39-1.35,9.68-8.13,9.68H322.2v17.74h-2.82Zm2.82,18.19h2.74c4.81,0,5.45-3,5.45-7.18V76.21c0-3.33-.8-6.34-5.21-6.34h-3Z"/><path class="cls-1" d="M351.87,243.6c36.68,0,61.25-23.91,61.25-23.91C375.13,222.64,350,243.6,351.87,243.6Z"/><path class="cls-1" d="M371.52,246.05s15.72,12.62,62.56,10.65C434.08,256.7,403.62,240,371.52,246.05Z"/><path class="cls-1" d="M402.8,238.69s37.5,7.86,66.65-10.15C469.45,228.54,422.6,226,402.8,238.69Z"/><path class="cls-1" d="M446.53,173.51C424.91,201.35,422,224.93,422,224.93,446.53,206.26,446.53,173.51,446.53,173.51Z"/><path class="cls-1" d="M434.08,223.3c27.19-4.59,46.18-24.08,46.18-24.08C452.1,199.22,434.08,223.3,434.08,223.3Z"/><path class="cls-1" d="M453.08,195.46c27.18-7.54,40.94-23.59,40.94-23.59C471.42,171.87,453.08,195.46,453.08,195.46Z"/><path class="cls-1" d="M448.82,139.45a64.64,64.64,0,0,0,8.35,38.65C460.94,157.46,448.82,139.45,448.82,139.45Z"/><path class="cls-1" d="M469.45,170.56c19.33-2.94,35.05-29.47,35.05-29.47C486.49,144,469.45,170.56,469.45,170.56Z"/><path class="cls-1" d="M464.13,164.34c7-13.76,2.21-48.88,2.21-48.88C456.27,132.9,464.13,164.34,464.13,164.34Z"/><path class="cls-1" d="M500.49,111.28c-15.72,8.6-25.06,40.78-25.06,40.78C490.91,142.23,500.49,111.28,500.49,111.28Z"/><path class="cls-1" d="M496.8,77.63c-17.56,17.56-21.37,49.13-21.37,49.13C487,130.19,496.8,77.63,496.8,77.63Z"/><path class="cls-1" d="M473.55,112.51c2.54-19.16-16.38-47.17-16.38-47.17C457.17,90.4,473.55,112.51,473.55,112.51Z"/><path class="cls-1" d="M486.12,47.41c-10.93,15.48-8.23,44-8.23,44C490.66,80.82,486.12,47.41,486.12,47.41Z"/><path class="cls-1" d="M422,33.16c21.7,16.22,46,33.9,46,33.9C453.45,33.42,422,33.16,422,33.16Z"/><path class="cls-1" d="M463.4,3.68C454.8,33.65,472,58,472,58,474.7,33.65,463.4,3.68,463.4,3.68Z"/><path class="cls-1" d="M399.77,0c28.7,18.59,57.4,40,57.4,40C446.53,0,399.77,0,399.77,0Z"/><path class="cls-1" d="M152.63,243.6c-36.68,0-61.25-23.91-61.25-23.91C129.38,222.64,154.48,243.6,152.63,243.6Z"/><path class="cls-1" d="M133,246.05s-15.72,12.62-62.56,10.65C70.42,256.7,100.88,240,133,246.05Z"/><path class="cls-1" d="M101.7,238.69s-37.5,7.86-66.65-10.15C35.05,228.54,81.9,226,101.7,238.69Z"/><path class="cls-1" d="M58,173.51c21.62,27.84,24.57,51.42,24.57,51.42C58,206.26,58,173.51,58,173.51Z"/><path class="cls-1" d="M70.42,223.3c-27.19-4.59-46.18-24.08-46.18-24.08C52.4,199.22,70.42,223.3,70.42,223.3Z"/><path class="cls-1" d="M51.42,195.46c-27.18-7.54-40.94-23.59-40.94-23.59C33.08,171.87,51.42,195.46,51.42,195.46Z"/><path class="cls-1" d="M55.68,139.45a64.64,64.64,0,0,1-8.35,38.65C43.56,157.46,55.68,139.45,55.68,139.45Z"/><path class="cls-1" d="M35.05,170.56c-19.33-2.94-35-29.47-35-29.47C18,144,35.05,170.56,35.05,170.56Z"/><path class="cls-1" d="M40.37,164.34c-7-13.76-2.21-48.88-2.21-48.88C48.23,132.9,40.37,164.34,40.37,164.34Z"/><path class="cls-1" d="M4,111.28c15.72,8.6,25.06,40.78,25.06,40.78C13.59,142.23,4,111.28,4,111.28Z"/><path class="cls-1" d="M7.7,77.63c17.56,17.56,21.37,49.13,21.37,49.13C17.52,130.19,7.7,77.63,7.7,77.63Z"/><path class="cls-1" d="M31,112.51C28.41,93.35,47.33,65.34,47.33,65.34,47.33,90.4,31,112.51,31,112.51Z"/><path class="cls-1" d="M18.38,47.41c10.93,15.48,8.23,44,8.23,44C13.84,80.82,18.38,47.41,18.38,47.41Z"/><path class="cls-1" d="M82.54,33.16c-21.7,16.22-46,33.9-46,33.9C51.05,33.42,82.54,33.16,82.54,33.16Z"/><path class="cls-1" d="M41.1,3.68C49.7,33.65,32.51,58,32.51,58,29.81,33.65,41.1,3.68,41.1,3.68Z"/><path class="cls-1" d="M104.73,0C76,18.59,47.33,40,47.33,40,58,0,104.73,0,104.73,0Z"/></g></g></svg>