<svg xmlns="http://www.w3.org/2000/svg" viewBox="0 0 504.5 256.91"><defs><style>.cls-1{fill:#fff;}</style></defs><g id="Layer_2" data-name="Layer 2"><g id="Capa_1" data-name="Capa 1"><path class="cls-1" d="M351.87,243.6c36.68,0,61.25-23.91,61.25-23.91C375.13,222.64,350,243.6,351.87,243.6Z"/><path class="cls-1" d="M371.52,246.05s15.72,12.62,62.56,10.65C434.08,256.7,403.62,240,371.52,246.05Z"/><path class="cls-1" d="M402.8,238.69s37.5,7.86,66.65-10.15C469.45,228.54,422.6,226,402.8,238.69Z"/><path class="cls-1" d="M446.53,173.51C424.91,201.35,422,224.93,422,224.93,446.53,206.26,446.53,173.51,446.53,173.51Z"/><path class="cls-1" d="M434.08,223.3c27.19-4.59,46.18-24.08,46.18-24.08C452.1,199.22,434.08,223.3,434.08,223.3Z"/><path class="cls-1" d="M453.08,195.46c27.18-7.54,40.94-23.59,40.94-23.59C471.42,171.87,453.08,195.46,453.08,195.46Z"/><path class="cls-1" d="M448.82,139.45a64.64,64.64,0,0,0,8.35,38.65C460.94,157.46,448.82,139.45,448.82,139.45Z"/><path class="cls-1" d="M469.45,170.56c19.33-2.94,35.05-29.47,35.05-29.47C486.49,144,469.45,170.56,469.45,170.56Z"/><path class="cls-1" d="M464.13,164.34c7-13.76,2.21-48.88,2.21-48.88C456.27,132.9,464.13,164.34,464.13,164.34Z"/><path class="cls-1" d="M500.49,111.28c-15.72,8.6-25.06,40.78-25.06,40.78C490.91,142.23,500.49,111.28,500.49,111.28Z"/><path class="cls-1" d="M496.8,77.63c-17.56,17.56-21.37,49.13-21.37,49.13C487,130.19,496.8,77.63,496.8,77.63Z"/><path class="cls-1" d="M473.55,112.51c2.54-19.16-16.38-47.17-16.38-47.17C457.17,90.4,473.55,112.51,473.55,112.51Z"/><path class="cls-1" d="M486.12,47.41c-10.93,15.48-8.23,44-8.23,44C490.66,80.82,486.12,47.41,486.12,47.41Z"/><path class="cls-1" d="M422,33.16c21.7,16.22,46,33.9,46,33.9C453.45,33.42,422,33.16,422,33.16Z"/><path class="cls-1" d="M463.4,3.68C454.8,33.65,472,58,472,58,474.7,33.65,463.4,3.68,463.4,3.68Z"/><path class="cls-1" d="M399.77,0c28.7,18.59,57.4,40,57.4,40C446.53,0,399.77,0,399.77,0Z"/><path class="cls-1" d="M152.63,243.6c-36.68,0-61.25-23.91-61.25-23.91C129.38,222.64,154.48,243.6,152.63,243.6Z"/><path class="cls-1" d="M133,246.05s-15.72,12.62-62.56,10.65C70.42,256.7,100.88,240,133,246.05Z"/><path class="cls-1" d="M101.7,238.69s-37.5,7.86-66.65-10.15C35.05,228.54,81.9,226,101.7,238.69Z"/><path class="cls-1" d="M58,173.51c21.62,27.84,24.57,51.42,24.57,51.42C58,206.26,58,173.51,58,173.51Z"/><path class="cls-1" d="M70.42,223.3c-27.19-4.59-46.18-24.08-46.18-24.08C52.4,199.22,70.42,223.3,70.42,223.3Z"/><path class="cls-1" d="M51.42,195.46c-27.18-7.54-40.94-23.59-40.94-23.59C33.08,171.87,51.42,195.46,51.42,195.46Z"/><path class="cls-1" d="M55.68,139.45a64.64,64.64,0,0,1-8.35,38.65C43.56,157.46,55.68,139.45,55.68,139.45Z"/><path class="cls-1" d="M35.05,170.56c-19.33-2.94-35-29.47-35-29.47C18,144,35.05,170.56,35.05,170.56Z"/><path class="cls-1" d="M40.37,164.34c-7-13.76-2.21-48.88-2.21-48.88C48.23,132.9,40.37,164.34,40.37,164.34Z"/><path class="cls-1" d="M4,111.28c15.72,8.6,25.06,40.78,25.06,40.78C13.59,142.23,4,111.28,4,111.28Z"/><path class="cls-1" d="M7.7,77.63c17.56,17.56,21.37,49.13,21.37,49.13C17.52,130.19,7.7,77.63,7.7,77.63Z"/><path class="cls-1" d="M31,112.51C28.41,93.35,47.33,65.34,47.33,65.34,47.33,90.4,31,112.51,31,112.51Z"/><path class="cls-1" d="M18.38,47.41c10.93,15.48,8.23,44,8.23,44C13.84,80.82,18.38,47.41,18.38,47.41Z"/><path class="cls-1" d="M82.54,33.16c-21.7,16.22-46,33.9-46,33.9C51.05,33.42,82.54,33.16,82.54,33.16Z"/><path class="cls-1" d="M41.1,3.68C49.7,33.65,32.51,58,32.51,58,29.81,33.65,41.1,3.68,41.1,3.68Z"/><path class="cls-1" d="M104.73,0C76,18.59,47.33,40,47.33,40,58,0,104.73,0,104.73,0Z"/><path class="cls-1" d="M100.84,98h8.36c7.46,0,10.25,3.93,10.25,10.45v2.16c0,6.75-2,8.81-4.45,9.72,2.6.82,5.44,3.1,5.44,9.63v3.55c0,8.37-2.9,12.52-11.08,12.52h-8.52ZM109,118.35c4.29,0,5.59-1.74,5.59-7.33v-2.15c0-4.36-1.6-6.51-5.72-6.51h-3v16Zm-3.16,23.4h3.09c5.16,0,6.44-2.47,6.44-8.32v-3.32c0-5.23-1.83-7.49-6.46-7.49h-3.07Z"/><path class="cls-1" d="M141.71,122.8H130.94v18.55h12.23l-.69,4.7H125.83V98h16.5v4.74H130.94V118.1h10.77Z"/><path class="cls-1" d="M151.15,132.53v2.78c0,4.53,1.56,6.95,4.93,6.95s4.79-2.49,4.79-7.76c0-5.62-1.23-7.8-6.29-11.74s-7.75-6.45-7.75-13.53c0-6.08,1.83-11.92,9.36-11.88,7.15,0,9,4.8,9,10.9v2.23h-5.07v-2.1c0-4-.78-6.56-4.07-6.56s-4.14,2.89-4.14,6.66c0,4.46.88,6.15,5.29,9.49,6.67,5,8.78,7.85,8.78,15.82,0,6.75-1.93,12.9-10,12.9-7.76,0-10-5.07-10-11.4v-2.76Z"/><path class="cls-1" d="M175.6,102.76h-7.77V98h20.61v4.74h-7.73v43.29H175.6Z"/><path class="cls-1" d="M220.67,146.05h-4.06c-.13-.78-.28-3.07-.31-4.15-1.21,3.56-3.94,4.79-7.07,4.79-6.64,0-8.82-4.9-8.82-12.58v-24c0-7.87,3.18-12.7,10.27-12.7,8.37,0,9.89,5.92,9.89,12v1.23h-5.11v-1.34c0-3.36-.4-7.24-4.82-7.24-3.34,0-5,2.11-5,7.57v24.75c0,4.74,1.23,7.76,4.73,7.76,4.41,0,5.16-4.07,5.16-10.2v-7.66h-5.33V119.8h10.48Z"/><path class="cls-1" d="M232.4,130.73l-2.3,15.32h-5.17l7.89-48h7.28l8.21,48H243l-2.47-15.32Zm7.43-4.7c-1.68-10.58-2.88-18.75-3.34-23.29h-.21c-.18,3.71-1.9,14.51-3.19,23.29Z"/><path class="cls-1" d="M276.14,126c0-8.8.15-18.29.29-23.43h-.07c-1.2,8.06-4.86,29.2-7.43,43.47h-5c-1.95-12.35-5.73-34.93-6.89-43.5h-.15c.15,5.57.4,16.46.4,24.69v18.81h-4.75V98h7.58c2.63,14.2,5.78,31.8,6.43,37.92h.07c.75-6,4.43-24.56,7.05-37.92h7.42v48h-4.95Z"/><path class="cls-1" d="M304.05,122.8H293.28v18.55h12.23l-.69,4.7H288.17V98h16.5v4.74H293.28V118.1h10.77Z"/><path class="cls-1" d="M317,146.05v-.7c0-7.39,3.4-13.06,8.95-21.23,3.81-5.55,4.85-7.72,4.85-12.94,0-5.59-.86-8.06-4.2-8.06-3.18,0-4.35,2.48-4.35,6.55v2.16h-4.78v-2.34c0-5.11,1.56-10.75,9.37-10.75,7.37,0,9.15,5.28,9.15,12.17,0,7.32-2,10.17-5.72,15.46-4.32,6.23-7.21,11.19-7.57,15.21H337l-.72,4.47Z"/><path class="cls-1" d="M360.46,110.62v23.92c0,8-3,12.09-10,12.09-6.4,0-9.67-4-9.67-12V110.92c0-8.81,4.13-12.18,10-12.18S360.46,102,360.46,110.62Zm-14.58-.16V135c0,4.66,1.44,6.89,4.79,6.89,3,0,4.68-1.78,4.68-7.06V110.4c0-5-1.81-6.9-4.72-6.9S345.88,105.14,345.88,110.46Z"/><path class="cls-1" d="M364.59,146.05v-.7c0-7.39,3.4-13.06,9-21.23,3.8-5.55,4.85-7.72,4.85-12.94,0-5.59-.87-8.06-4.21-8.06-3.17,0-4.35,2.48-4.35,6.55v2.16h-4.78v-2.34c0-5.11,1.56-10.75,9.37-10.75,7.38,0,9.15,5.28,9.15,12.17,0,7.32-2,10.17-5.72,15.46-4.31,6.23-7.21,11.19-7.57,15.21h14.31l-.72,4.47Z"/><path class="cls-1" d="M408.06,110.62v23.92c0,8-3.05,12.09-10,12.09-6.4,0-9.67-4-9.67-12V110.92c0-8.81,4.14-12.18,10-12.18C404.07,98.74,408.06,102,408.06,110.62Zm-14.59-.16V135c0,4.66,1.44,6.89,4.79,6.89,3,0,4.68-1.78,4.68-7.06V110.4c0-5-1.81-6.9-4.72-6.9S393.47,105.14,393.47,110.46Z"/><path class="cls-1" d="M202.43,78.62,197,40.22h3c1.39,10.07,3.81,28.56,4.15,33.79h.07c.3-4.82,3.6-24.22,5-33.79h3.07c1.43,9.48,4.69,27.82,5,33.64h.16c.41-5.92,3.11-23.78,4.5-33.64h2.92L219,78.62h-3.32c-1.37-9.23-4.32-27.83-4.9-33.13h-.06c-.73,6.13-3.48,23.82-5,33.13Z"/><path class="cls-1" d="M231.55,40.22v38.4h-2.82V40.22Z"/><path class="cls-1" d="M237.58,78.62V40.22h3.51c2.44,8.27,8.31,29.22,9.09,33.12h.1c-.19-5.47-.28-10.88-.28-17.1v-16h2.73v38.4h-3.41c-2.62-9-8.39-30.2-9.36-34.26h-.05c.23,4.61.42,11.39.42,18.34V78.62Z"/><path class="cls-1" d="M258.74,78.62V40.22h3.51c2.44,8.27,8.3,29.22,9.08,33.12h.11c-.19-5.47-.29-10.88-.29-17.1v-16h2.74v38.4h-3.41c-2.62-9-8.4-30.2-9.36-34.26h-.06c.24,4.61.42,11.39.42,18.34V78.62Z"/><path class="cls-1" d="M291.44,59.3h-8.73V76h9.81l-.42,2.59H279.89V40.22H292v2.6h-9.24V56.71h8.73Z"/><path class="cls-1" d="M298.87,60.17V78.62h-2.82V40.22h5.68c5.72,0,8.14,2.59,8.14,8.55v2c0,4.74-1.43,7.32-3.91,8.14,2.57.8,3.6,2.78,3.6,7.87,0,3.32-.06,9.39.39,11.88h-2.78c-.47-2.44-.4-9-.4-11.62,0-5.18-.77-6.83-4.83-6.83Zm0-2.49h3.3c4,0,4.83-2.76,4.83-6.81v-2c0-3.88-1.2-6.18-5.38-6.18h-2.75Z"/><path class="cls-1" d="M213,189.55h4.24c3.65,0,5,1.79,5,4.93v.88c0,3.12-1,4-2,4.45,1.07.38,2.47,1.3,2.47,4.42v1.65c0,3.78-1.46,5.72-5.26,5.72H213Zm4,9.13c1.93,0,2.51-.68,2.51-3v-.92c0-1.9-.68-2.72-2.42-2.72h-1.2v6.66Zm-1.11,10.48h1.26c2.13,0,2.66-1,2.66-3.35v-1.49c0-2.26-.67-3.23-2.81-3.23h-1.11Z"/><path class="cls-1" d="M232.84,201.27H228v7.61h5.59l-.38,2.72H225v-22h8.12v2.74H228v6.26h4.88Z"/><path class="cls-1" d="M237.77,205.23v1.33c0,1.82.58,2.82,2,2.82s1.9-1.21,1.9-3.06c0-2.46-.54-3.3-2.89-5.15s-3.6-3-3.6-6.28c0-2.86.86-5.68,4.62-5.67s4.47,2.61,4.47,5.17v1.11h-2.93v-1c0-1.66-.31-2.69-1.59-2.69s-1.61,1.11-1.61,2.68c0,1.77.34,2.54,2.31,4,3.2,2.39,4.19,3.75,4.19,7.43,0,3.11-1,6-5,6s-4.86-2.49-4.86-5.39v-1.29Z"/><path class="cls-1" d="M249,192.29h-3.55v-2.74h10.06v2.74h-3.55V211.6h-3Z"/><path class="cls-1" d="M264.34,201.56v10h-2.95v-22h4.35c3.33,0,5.17,1.38,5.17,5.21v.91c0,3.23-1.25,4.24-2.25,4.62,1.33.57,2,1.55,2,4.52a60,60,0,0,0,.21,6.79H268a48.69,48.69,0,0,1-.23-6.59c0-2.75-.37-3.45-2.43-3.45Zm0-2.47h1.06c1.92,0,2.54-.9,2.54-3.28V195c0-1.84-.44-2.94-2.48-2.94h-1.12Z"/><path class="cls-1" d="M273.53,189.55h4.54c3.4,0,5.09,1.7,5.09,5.46v1.32c0,3.5-1.16,5.93-5.27,5.93h-1.4v9.34h-3Zm3,10.27h1.09c2.28,0,2.64-1.37,2.64-3.58v-1.12c0-1.68-.33-3.1-2.38-3.1h-1.35Z"/><path class="cls-1" d="M295.12,211.6H292.8a15,15,0,0,1-.17-1.76,3.2,3.2,0,0,1-3.28,2.07c-3.16,0-4.19-2.31-4.19-6V195.32c0-3.61,1.42-6.08,5-6.08,4.3,0,4.88,3.12,4.88,5.67v.65h-3v-.77c0-1.33-.17-2.85-1.93-2.85-1.36,0-2,.9-2,3v11.31c0,1.94.54,3.05,1.92,3.05,1.71,0,2.06-1.5,2.06-4v-3.35H290v-2.55h5.11Z"/><rect class="cls-1" x="98.15" y="168.84" width="309.91" height="1"/></g></g></svg>