<?xml version="1.0" encoding="utf-8"?>
<!-- Generator: Adobe Illustrator 28.1.0, SVG Export Plug-In . SVG Version: 6.00 Build 0)  -->
<svg version="1.1" id="Layer_1" xmlns="http://www.w3.org/2000/svg" xmlns:xlink="http://www.w3.org/1999/xlink" x="0px" y="0px"
	 viewBox="0 0 288 90" style="enable-background:new 0 0 288 90;" xml:space="preserve">
<style type="text/css">
	.st0{fill:#B4FF53;}
</style>
<path class="st0" d="M154.7,70.8l-19.6-24.5l18.3-21.6h-12.1L125,45.3V24.7h-9.8v46.1h9.8V56.6l3.6-4.3l14,18.5H154.7z"/>
<path class="st0" d="M177.8,71.7c14,0,24.1-10,24.1-23.9c0-13.9-10.2-23.9-24.1-23.9c-13.9,0-24.1,10-24.1,23.9
	C153.7,61.7,163.9,71.7,177.8,71.7z M177.8,62.9c-8.5,0-14-6.6-14-15.1c0-8.6,5.5-15.1,14-15.1c8.5,0,14,6.5,14,15.1
	C191.8,56.4,186.3,62.9,177.8,62.9z"/>
<path class="st0" d="M233.8,70.8c8.8,0,13.4-5.5,13.4-12.4c0-5.8-3.9-10.6-8.9-11.3c4.4-0.9,8-4.8,8-10.6c0-6.2-4.5-11.8-13.3-11.8
	h-24.3v46.1H233.8z M230.9,43.2h-12.3v-10h12.3c3.3,0,5.4,2.1,5.4,5C236.3,41.1,234.2,43.2,230.9,43.2z M231.3,62.3h-12.7V51.6h12.7
	c3.9,0,5.9,2.5,5.9,5.4C237.2,60.3,235,62.3,231.3,62.3z"/>
<path class="st0" d="M287.3,70.8v-8.6h-22.8V51.7h22.3v-8.6h-22.3v-9.8h22.8v-8.6h-32.6v46.1H287.3z"/>
<path class="st0" d="M87.4,23.6V12.5H49.4V0H37.2v12.5H0v11.1h37.3v10.1H9v44.8h11.5V44.8h16.8V90h11.9V44.8h18.3v21.1
	c0,1.1-0.5,1.5-2,1.5c-1.5,0-7.2,0-12-0.2c1.6,3.1,3.4,8,3.8,11.2c7.5,0,12.9-0.2,17-1.9c3.9-1.7,5.1-5,5.1-10.4V33.6H49.2V23.6
	H87.4z"/>
</svg>
