<?xml version="1.0" encoding="utf-8"?>
<!-- Generator: Adobe Illustrator 28.1.0, SVG Export Plug-In . SVG Version: 6.00 Build 0)  -->
<svg version="1.1" id="Layer_1" xmlns="http://www.w3.org/2000/svg" xmlns:xlink="http://www.w3.org/1999/xlink" x="0px" y="0px"
	 viewBox="0 0 373 90" style="enable-background:new 0 0 373 90;" xml:space="preserve">
<style type="text/css">
	.st0{fill:#B4FF53;}
</style>
<path class="st0" d="M189.6,14c-6.7,3.9-13,8.6-18.8,13.9c-5.9,5.3-11.6,10.6-17.2,16.2c-3.2,3.1-6.3,6.3-9.4,9.5s-6.1,6.5-9.2,9.7
	c-1.6,1.9-3.3,3.8-5.2,5.7c-1.7,1.8-3.5,3.6-5.2,5.7c2.8-0.7,5.5-1.5,8.2-2.4c2.8-0.9,5.3-1.8,7.6-2.4c2-0.4,4.1-0.9,6.4-1.6
	c2.3-0.7,4.5-1.2,6.8-1.6c2.3-0.5,4.5-0.8,6.8-0.8c2.4-0.1,4.6,0.2,6.6,1c2.5,0.9,4.1,2.6,4.6,4.8c0.4,1.5,0.3,2.9-0.4,4.2
	c2.3-0.7,4.5-1.4,6.6-2.2c2.3-0.8,4.4-1.5,6.4-2.2c3.9-1.2,7.7-2.4,11.6-3.6c3.9-1.3,7.8-2.4,11.8-3.2c1.1-0.3,2.3-0.4,3.8-0.4
	c1.6-0.1,3,0,4.2,0.4c1.2,0.4,2.1,1.1,2.6,2.2c0.7,0.9,0.7,2.4,0.2,4.2c-0.4,1.2-1.2,2.2-2.4,3c-1.2,0.7-2.6,1.2-4.2,1.6
	c-1.6,0.4-3.2,0.7-4.8,1c-1.6,0.1-2.9,0.3-3.8,0.6c-4.5,1.3-9,2.8-13.4,4.2c-4.4,1.3-8.8,2.7-13.2,4c-2.3,0.7-4.7,1.3-7.4,2
	c-2.7,0.8-5.2,0.9-7.6,0.4c-0.9-0.1-1.9-0.5-3-1.2c-2.3-1.8-3.3-3.4-3.2-4.8c0.1-1.5,0.7-3,1.8-4.4h-2.4c-4.8,0.8-9.6,1.8-14.4,3
	c-3.9,1.1-7.8,2.3-11.8,3.6c-3.9,1.3-7.9,2.2-12,2.6c-1.5,0.1-2.9-0.1-4.4-0.8c-1.5-0.5-2.5-1.7-3.2-3.4c-0.5-1.5-0.5-2.9,0-4.2
	c0.5-1.5,1.3-2.9,2.2-4.2c-3.9,2.3-7.5,4.2-11,5.9c-3.3,1.5-5.9,2.6-7.6,3.2c-3.5,1.5-7.2,3-11.2,4.6c-4,1.6-8,2.4-12,2.2
	c-4.4-0.3-7.1-1.5-8-3.6c-0.9-2.2-0.7-4.8,0.6-8.1c1.2-3.4,3.1-6.9,5.8-10.7c2.7-3.9,5.5-7.6,8.4-11.1c3.1-3.5,5.9-6.5,8.4-9.1
	c2.5-2.7,4.2-4.4,5-5.3l2.8-2.8c-3.9,0-7.7,0-11.4,0c-3.7,0-7.5,0.1-11.4,0.2c-7.7,0.3-15.4,0.7-23,1.2c-7.7,0.4-15.5,1-23.2,1.8
	c-2.8,0.4-5.5,0.8-8.2,1.2C12,44,9.2,44.4,6.4,45.1c-0.7,0.1-1.4,0.3-2.2,0.6C3.4,46,2.7,46,2,45.7c-1.5-0.5-2.1-1.5-2-2.8
	c0-1.5,0.7-2.4,2-2.8c16-4.2,32.5-6.8,49.5-7.9c17-1.2,33.7-2,50.3-2.2c3.5-3.2,6.9-6.4,10.4-9.5s7-6.2,10.6-9.3
	c1.7-1.6,3.7-3.6,6-6.1c2.4-2.6,4.8-4.2,7.2-4.8c1.3-0.4,2.5-0.3,3.4,0.2c1.1,0.4,1.9,1.1,2.4,2.2c0.5,0.9,0.7,2,0.6,3.2
	c-0.1,1.2-0.7,2.3-1.6,3.2c-4.1,3.5-8.2,7-12.2,10.5c-4,3.4-8,6.9-11.8,10.5c2,0,3.9,0.3,5.6,0.8c1.6,0.4,3,1.1,4.2,2
	c1.3,0.9,2.3,2.4,2.8,4.2c0.4,1.6,0.2,3-0.6,4.2c-0.8,1.1-1.8,1.9-3,2.4c-1.2,0.4-2.5,0.5-3.8,0.2c-1.2-0.4-2.1-1.3-2.8-2.6
	c-1.7-0.7-3.7-1.1-6-1.4c-2.3-0.4-4.4-0.6-6.4-0.6l-2,1.8c-5.5,5.3-11.3,10.9-17.4,17c-6,6.1-10.8,12.6-14.2,19.6
	c4.7-0.9,9.5-2.3,14.4-4c4.9-1.8,9.8-3.7,14.6-5.9c4.8-2.2,9.6-4.4,14.2-6.9c4.7-2.6,9-5.2,13-7.9c5.1-5.3,10.2-10.4,15.4-15.4
	c5.3-5.1,10.8-10,16.2-14.8c3.3-3,6.7-5.9,10.2-8.7s7-5.5,10.6-7.9c1.5-1.1,3.1-1.8,4.8-2c1.9-0.4,3.4,0.3,4.6,2.2
	c0.7,1.2,0.8,2.6,0.4,4C191.6,12.1,190.8,13.2,189.6,14z"/>
<path class="st0" d="M306.8,74.8c-3.1,0.3-6.1,0.8-9.2,1.6c-2.9,0.7-5.9,1.3-9,2c-8,1.9-16,3.7-23.9,5.5c-7.9,1.6-15.9,2.8-24,3.6
	c-2.1,0.3-4.4,0.5-6.8,0.6c-2.3,0.1-4.6,0.1-7-0.2c-2.3-0.3-4.5-0.8-6.6-1.6c-2.1-0.7-4.1-1.8-5.8-3.2c-1.5-1.2-2.6-2.6-3.4-4.2
	c-0.9-1.6-1.5-3.3-1.6-5.1c-0.3-1.8-0.1-3.4,0.4-5.1c0.5-1.8,1.5-3.3,3-4.6c0.9-0.9,2.4-1.7,4.4-2.2c2.1-0.7,4.5-1.1,7-1.4
	c2.5-0.3,5.1-0.3,7.6-0.2c2.5,0.1,4.7,0.6,6.6,1.4s3.1,2,3.8,3.4c0.8,1.3,0.7,3.1-0.2,5.3c-0.8,1.6-2,2.8-3.6,3.4
	c-1.6,0.7-3.4,1.1-5.4,1.4c-2,0.1-4.1,0.1-6.2,0c-2.1-0.3-4-0.5-5.6-0.8c0.5,0.5,1.6,1,3.2,1.4c1.6,0.3,3.3,0.5,5,0.6
	c1.9,0.1,3.5,0.2,5,0.2c1.6,0,2.6,0,3,0c6.5-0.5,13-1.5,19.4-2.8c6.5-1.3,13-2.8,19.4-4.2c4.7-1.1,9.3-2.2,13.8-3.2
	c4.7-1.2,9.4-2.1,14-2.6c2-0.1,3.7,0.3,5,1.4c1.3,1.1,2.2,2.4,2.6,3.8c0.4,1.3,0.2,2.6-0.6,3.8C310.6,74,309.1,74.7,306.8,74.8z"/>
<path class="st0" d="M367.3,74.8c-6.8,0.1-13.8,0.3-20.8,0.6c-7.1,0.1-14-0.7-20.8-2.4c-0.5,0-1.1-0.1-1.6-0.4
	c-0.8,2.3-2,4.5-3.6,6.7c-1.5,2-3.1,3.8-5,5.3c-1.9,1.5-3.9,2.6-6.2,3.2c-2.1,0.7-4.3,0.7-6.4,0.2c-2-0.5-3.5-1.5-4.4-3
	c-1.1-1.5-1.7-3.2-1.8-5.1c-0.1-1.9,0.1-3.8,0.8-5.7c0.5-1.9,1.3-3.6,2.4-5.1c1.7-2.2,3.9-3.8,6.6-4.8c2.7-1.1,5.3-1.2,8-0.4
	c0.3-1.9,1.3-3.4,3.2-4.4c1.9-1.1,3.9-0.9,6,0.4c2,1.2,4.1,2.2,6.4,2.8c2.4,0.5,4.9,0.9,7.4,1s5,0.2,7.4,0.2
	c2.5-0.1,4.9-0.2,7.2-0.2c2.7,0,5.5-0.1,8.6-0.4c3.1-0.4,5.9-0.2,8.4,0.6c1.5,0.5,2.5,1.4,3,2.6c0.7,1.2,0.9,2.4,0.6,3.6
	c-0.1,1.2-0.7,2.3-1.6,3.2C370.2,74.4,368.9,74.8,367.3,74.8z M307.4,77.5c0.4-0.4,1.2-0.6,2.4-0.6V75c-0.3,0.3-0.7,0.6-1.2,1
	C308.1,76.3,307.7,76.8,307.4,77.5z"/>
</svg>
