<?xml version="1.0" encoding="utf-8"?>
<!-- Generator: Adobe Illustrator 28.1.0, SVG Export Plug-In . SVG Version: 6.00 Build 0)  -->
<svg version="1.1" id="Layer_1" xmlns="http://www.w3.org/2000/svg" xmlns:xlink="http://www.w3.org/1999/xlink" x="0px" y="0px"
	 viewBox="0 0 388 91" style="enable-background:new 0 0 388 91;" xml:space="preserve">
<style type="text/css">
	.st0{fill:#B4FF53;}
	.st1{fill-rule:evenodd;clip-rule:evenodd;fill:#B4FF53;}
</style>
<circle class="st0" cx="44.7" cy="45.8" r="44.7"/>
<path class="st1" d="M110.6,11.8V0.5h56.9v11.3h-21.9v66.6h-12.7V11.8H110.6z M170.5,27.7c3.9-4.9,10.5-7.4,19.6-7.4
	c9.1,0,15.6,2.5,19.4,7.4c3.9,4.9,5.9,12.3,5.9,22.2s-1.9,17.3-5.7,22.3c-3.8,5-10.3,7.5-19.7,7.5c-9.3,0-15.9-2.5-19.7-7.5
	c-3.8-5-5.7-12.4-5.7-22.3S166.7,32.6,170.5,27.7z M179.8,64.6c1.7,3,5.2,4.5,10.2,4.5c5.1,0,8.5-1.5,10.2-4.5c1.7-3,2.6-8,2.6-14.9
	s-0.9-11.8-2.8-14.7c-1.8-2.9-5.2-4.3-10-4.3c-4.9,0-8.2,1.4-10.1,4.3c-1.8,2.9-2.7,7.8-2.7,14.7S178.1,61.6,179.8,64.6z
	 M227.7,78.4h12.4V55.2l7.4-0.8l13.9,24h14l-17.3-30.2l16.4-26.6h-13.9l-13.4,22.2l-7,0.7V0.5h-12.4V78.4z M279.3,21.5h12.2
	l12.1,46.3h3.1l12.1-46.3h12.3l-18.3,69h-12l3.4-12.1h-9.8L279.3,21.5z M362.1,20.3c-9.1,0-15.6,2.5-19.6,7.4
	c-3.9,4.9-5.8,12.3-5.8,22.2s1.9,17.3,5.7,22.3c3.8,5,10.3,7.5,19.7,7.5s15.9-2.5,19.7-7.5c3.8-5,5.7-12.4,5.7-22.3
	s-2-17.2-5.9-22.2C377.7,22.7,371.2,20.3,362.1,20.3z M362.1,69.2c-5.1,0-8.5-1.5-10.2-4.5c-1.7-3-2.6-8-2.6-14.9s0.9-11.8,2.7-14.7
	c1.9-2.9,5.3-4.3,10.1-4.3c4.9,0,8.2,1.4,10,4.3c1.9,2.9,2.8,7.8,2.8,14.7s-0.9,11.9-2.6,14.9C370.6,67.7,367.2,69.2,362.1,69.2z"/>
</svg>
