<?xml version="1.0" encoding="utf-8"?>
<!-- Generator: Adobe Illustrator 28.1.0, SVG Export Plug-In . SVG Version: 6.00 Build 0)  -->
<svg version="1.1" id="Layer_1" xmlns="http://www.w3.org/2000/svg" xmlns:xlink="http://www.w3.org/1999/xlink" x="0px" y="0px"
	 viewBox="0 0 290 90" style="enable-background:new 0 0 290 90;" xml:space="preserve">
<style type="text/css">
	.st0{fill:#B4FF53;}
</style>
<path class="st0" d="M22.2,18.4c-2.9,0-5.3-0.9-7.2-2.6c-1.8-1.8-2.7-4-2.7-6.6s0.9-4.8,2.7-6.5C16.8,0.9,19.2,0,22.2,0
	c2.9,0,5.3,0.9,7.1,2.7c1.9,1.7,2.9,3.9,2.9,6.5s-1,4.8-2.9,6.6C27.4,17.6,25.1,18.4,22.2,18.4z M0,88.5l10.8-61h15.9l-10.8,61H0z"
	/>
<path class="st0" d="M67.4,88.5c-6.5,0-11.7-1.6-15.6-4.7C48,80.7,46,75.2,46,67.3V40.7H35.5V27.5H46l1.9-16.4H62v16.4h16.7v13.2H62
	v26.7c0,3,0.6,5,1.9,6.1s3.6,1.6,6.7,1.6h7.7v13.4H67.4z"/>
<path class="st0" d="M113.6,90c-5.3,0-9.7-0.8-13.1-2.5s-5.9-4-7.6-6.8s-2.5-5.9-2.5-9.2c0-5.7,2.2-10.2,6.7-13.8
	c4.5-3.5,11.2-5.3,20.2-5.3H133V51c0-4.2-1.2-7.3-3.6-9.2c-2.4-2-5.4-3-9-3c-3.2,0-6.1,0.8-8.5,2.3s-3.9,3.7-4.5,6.6H91.9
	c0.4-4.4,1.9-8.3,4.5-11.6c2.7-3.3,6.1-5.8,10.2-7.5c4.1-1.8,8.8-2.7,13.9-2.7c8.8,0,15.7,2.2,20.8,6.5s7.6,10.5,7.6,18.4v37.5
	h-13.6l-1.5-9.8c-1.8,3.3-4.4,6-7.7,8.1C122.9,88.9,118.7,90,113.6,90z M117.2,77.7c4.6,0,8.1-1.5,10.6-4.4c2.6-3,4.2-6.6,4.9-10.9
	h-13.6c-4.2,0-7.3,0.8-9.1,2.3c-1.8,1.5-2.7,3.3-2.7,5.5c0,2.4,0.9,4.2,2.7,5.5C111.8,77,114.2,77.7,117.2,77.7z"/>
<path class="st0" d="M164.1,88.5V0H180v88.5H164.1z"/>
<path class="st0" d="M204.9,18.1c-2.9,0-5.3-0.9-7.2-2.6c-1.8-1.7-2.7-3.9-2.7-6.5s0.9-4.8,2.7-6.4c1.9-1.7,4.3-2.6,7.2-2.6
	s5.3,0.9,7.1,2.6c1.9,1.6,2.9,3.8,2.9,6.4s-1,4.8-2.9,6.5C210.2,17.2,207.8,18.1,204.9,18.1z M197,88.5v-61h15.9v61H197z"/>
<path class="st0" d="M259.8,90c-6.3,0-11.9-1.4-16.7-4.1s-8.6-6.5-11.4-11.3c-2.7-4.8-4.1-10.4-4.1-16.6s1.4-11.8,4.1-16.6
	c2.8-4.8,6.6-8.6,11.4-11.3c4.8-2.7,10.4-4.1,16.7-4.1c7.9,0,14.5,2,19.9,6.1c5.4,4,8.8,9.6,10.3,16.7h-16.8c-0.8-3-2.5-5.2-5-6.9
	c-2.4-1.7-5.3-2.6-8.6-2.6c-4.4,0-8.1,1.6-11.2,4.9c-3.1,3.3-4.6,7.8-4.6,13.6s1.5,10.4,4.6,13.6c3.1,3.3,6.8,4.9,11.2,4.9
	c3.3,0,6.2-0.8,8.6-2.5c2.5-1.6,4.1-4,5-7H290c-1.5,6.9-4.9,12.4-10.3,16.6C274.3,87.9,267.6,90,259.8,90z"/>
</svg>
